<svg width="24" height="24" viewBox="0 0 24 24" fill="none" xmlns="http://www.w3.org/2000/svg">
<path d="M12 23C5.9247 23 1 18.0753 1 12C1 5.9247 5.9247 1 12 1C18.0753 1 23 5.9247 23 12C23 18.0753 18.0753 23 12 23ZM12 20.8C14.3339 20.8 16.5722 19.8729 18.2225 18.2225C19.8729 16.5722 20.8 14.3339 20.8 12C20.8 9.66609 19.8729 7.42778 18.2225 5.77746C16.5722 4.12714 14.3339 3.2 12 3.2C9.66609 3.2 7.42778 4.12714 5.77746 5.77746C4.12714 7.42778 3.2 9.66609 3.2 12C3.2 14.3339 4.12714 16.5722 5.77746 18.2225C7.42778 19.8729 9.66609 20.8 12 20.8ZM16.95 7.05L14.2 14.2L7.05 16.95L9.8 9.8L16.95 7.05ZM12 13.1C12.2917 13.1 12.5715 12.9841 12.7778 12.7778C12.9841 12.5715 13.1 12.2917 13.1 12C13.1 11.7083 12.9841 11.4285 12.7778 11.2222C12.5715 11.0159 12.2917 10.9 12 10.9C11.7083 10.9 11.4285 11.0159 11.2222 11.2222C11.0159 11.4285 10.9 11.7083 10.9 12C10.9 12.2917 11.0159 12.5715 11.2222 12.7778C11.4285 12.9841 11.7083 13.1 12 13.1Z" fill="black" stroke="white" stroke-width="0.5"/>
</svg>
