<svg width="36" height="30" viewBox="0 0 36 30" fill="none" xmlns="http://www.w3.org/2000/svg">
<path d="M12.0194 24.407L12.0192 24.4046C11.9255 22.2614 12.1642 20.2032 12.9491 18.2724L12.9494 18.2717C13.4487 17.0408 14.121 16.1033 15.1815 15.5357C15.855 15.1763 16.5723 15.0047 17.3236 15.0221L17.3236 15.0221L17.3286 15.0222C17.3286 15.0224 17.3608 15.0258 17.4336 15.0535C17.5166 15.0851 17.6134 15.1329 17.7317 15.1977L17.7317 15.1977L17.7343 15.1992C17.9773 15.3315 18.1643 15.4551 18.3814 15.5986C18.539 15.7028 18.7124 15.8175 18.9347 15.9536C20.2774 16.7816 21.6691 17.2247 23.097 17.2241C24.5255 17.2234 25.9169 16.7787 27.2584 15.9473L27.2587 15.9471C27.309 15.916 27.3616 15.8837 27.4161 15.8502C27.6953 15.6788 28.0233 15.4775 28.327 15.2479C28.6139 15.0333 28.9463 14.9695 29.4851 15.0498L29.4867 15.05C31.0238 15.2766 32.0957 16.0894 32.858 17.4866C33.5701 18.7967 33.9091 20.2441 34.0591 21.8052C34.1369 22.6163 34.1736 23.4299 34.1655 24.242C34.1409 26.2561 32.7962 27.7234 30.7729 27.9463L30.7616 27.9476L30.7503 27.9491C30.6689 27.9599 30.5982 27.977 30.5459 27.9917C25.5545 28 20.563 28 15.5705 28C15.4711 27.9801 15.382 27.9632 15.2994 27.9476C15.0976 27.9094 14.9345 27.8786 14.7547 27.8283C13.0939 27.3616 12.0905 26.1285 12.0194 24.407Z" fill="#E81224" stroke="#E81224" stroke-width="2"/>
<path d="M28.8932 6.98045L28.8932 6.98166C28.9151 10.2459 26.2141 12.9681 22.9204 12.9754L22.9193 12.9754C19.6335 12.9863 16.918 10.265 16.918 7.00909C16.918 3.70452 19.5565 1.02606 22.8828 1.00013C26.1851 0.978495 28.8749 3.64159 28.8932 6.98045ZM29.8932 6.97496C29.9188 10.7972 26.7662 13.9668 22.9226 13.9754L22.8757 0.000156656C26.7364 -0.025439 29.8719 3.0887 29.8932 6.97496Z" fill="#E81224" stroke="#E81224" stroke-width="2"/>
<path d="M8.46958 29C8.1411 28.9317 7.80409 28.8805 7.48415 28.7909C5.41943 28.2108 4.10979 26.6153 4.0202 24.4482C3.92209 22.2043 4.16951 19.9946 5.0227 17.8957C5.57301 16.5392 6.37074 15.3703 7.71024 14.6536C8.53357 14.2142 9.42088 14.0009 10.3466 14.0223C10.6367 14.0265 10.9481 14.1758 11.2126 14.3209C11.6434 14.5555 11.9928 14.0649 12.4108 14.3209C12.4108 14.3209 13.5 14.5 16 14.3209C15.73 14.3209 17.6843 13.7389 18 13.5C18.5802 13.0648 21.8132 13.8976 22.5 14C24.3813 14.2773 25.8405 15.366 26.7363 17.0084C27.534 18.4759 27.8967 20.0671 28.0545 21.7095C28.1355 22.5541 28.1739 23.4031 28.1654 24.252C28.1355 26.7817 27.0169 29.7227 24.5 30C24.436 30.0085 23.7587 28.9744 23.699 28.9914C18.6225 29 13.546 29 8.46958 29Z" fill="white"/>
<path d="M22.8932 6.97496C22.9188 10.7972 19.7662 13.9668 15.9226 13.9754C12.0833 13.9882 8.91797 10.8186 8.91797 7.00909C8.91797 3.15695 11.998 0.0300182 15.8757 0.000156656C19.7364 -0.025439 22.8719 3.0887 22.8932 6.97496Z" fill="white"/>
<path d="M1.01935 24.407L1.01925 24.4046C0.925538 22.2614 1.16419 20.2032 1.94908 18.2724L1.94936 18.2717C2.44867 17.0408 3.12099 16.1033 4.1815 15.5357C4.85497 15.1763 5.5723 15.0047 6.32355 15.0221L6.32355 15.0221L6.32864 15.0222C6.32862 15.0224 6.36076 15.0258 6.43361 15.0535C6.51661 15.0851 6.61344 15.1329 6.73174 15.1977L6.73174 15.1977L6.73433 15.1992C6.97733 15.3315 7.1643 15.4551 7.3814 15.5986C7.53897 15.7028 7.7124 15.8175 7.93466 15.9536C9.2774 16.7816 10.6691 17.2247 12.097 17.2241C13.5255 17.2234 14.9169 16.7787 16.2584 15.9473L16.2587 15.9471C16.309 15.916 16.3616 15.8837 16.4161 15.8502C16.6953 15.6788 17.0233 15.4775 17.327 15.2479C17.6139 15.0333 17.9463 14.9695 18.4851 15.0498L18.4867 15.05C20.0238 15.2766 21.0957 16.0894 21.858 17.4866C22.5701 18.7967 22.9091 20.2441 23.0591 21.8052C23.1369 22.6163 23.1736 23.4299 23.1655 24.242C23.1409 26.2561 21.7962 27.7234 19.7729 27.9463L19.7616 27.9476L19.7503 27.9491C19.6689 27.9599 19.5982 27.977 19.5459 27.9917C14.5545 28 9.563 28 4.57053 28C4.47115 27.9801 4.38204 27.9632 4.2994 27.9476C4.09764 27.9094 3.93448 27.8786 3.75466 27.8283C2.09386 27.3616 1.09052 26.1285 1.01935 24.407Z" fill="#E81224" stroke="#E81224" stroke-width="2"/>
<path d="M17.8932 6.98045L17.8932 6.98166C17.9151 10.2459 15.2141 12.9681 11.9204 12.9754L11.9193 12.9754C8.63352 12.9863 5.91797 10.265 5.91797 7.00909C5.91797 3.70452 8.55653 1.02606 11.8828 1.00013C15.1851 0.978495 17.8749 3.64159 17.8932 6.98045ZM18.8932 6.97496C18.9188 10.7972 15.7662 13.9668 11.9226 13.9754L11.8757 0.000156656C15.7364 -0.025439 18.8719 3.0887 18.8932 6.97496Z" fill="#E81224" stroke="#E81224" stroke-width="2"/>
</svg>
