<svg xmlns="http://www.w3.org/2000/svg" viewBox="0 0 35.22 29.01"><defs><style>.cls-1{fill:none;}</style></defs><g id="Layer_2" data-name="Layer 2"><g id="Layer_1-2" data-name="Layer 1"><path class="cls-1" d="M20.63,11.72A5.29,5.29,0,1,0,21.35,2"/><path class="cls-1" d="M18.82,12.88l.43,0c-.07,0-.13-.1-.19-.14Z"/><path d="M35.11,21.7A12,12,0,0,0,33.77,17a5.36,5.36,0,0,0-4.05-2.91,2.48,2.48,0,0,0-2,.4c-.31.23-.64.43-1,.63a7.3,7.3,0,0,1-.67.36,6.17,6.17,0,0,1,.72,1.06c.07.13.12.26.19.39.18-.09.35-.18.53-.29l1.26-.8a.69.69,0,0,1,.37-.08,3.66,3.66,0,0,1,3.14,2.14,10.51,10.51,0,0,1,1.08,3.87c.08.74.11,1.49.12,2.23A3,3,0,0,1,30.3,27.3H27.46A4.24,4.24,0,0,1,26,29c1.31,0,2.61,0,3.91,0a8.21,8.21,0,0,0,1-.05,4.62,4.62,0,0,0,4.32-4.68A24.55,24.55,0,0,0,35.11,21.7Z"/><path d="M29.86,5.91A7,7,0,0,0,24.75.24C24.37.15,24,.08,23.62,0h-1.3l-.81.14a6.64,6.64,0,0,0-1.57.56A7.4,7.4,0,0,1,21.35,2a5.28,5.28,0,1,1-.72,9.74,7,7,0,0,1-1.57,1c.06,0,.12.1.19.14A6.88,6.88,0,0,0,23.4,14l.58-.08a6.84,6.84,0,0,0,4.88-3.15A6.85,6.85,0,0,0,29.86,5.91Z"/><path d="M18.81,5.91a6.27,6.27,0,0,0-.43-1.52,6.88,6.88,0,0,0-.95-1.64A6.78,6.78,0,0,0,13.7.24a5.35,5.35,0,0,0-.55-.11c-.19,0-.4-.08-.59-.1a7.06,7.06,0,0,0-1.3,0,7.36,7.36,0,0,0-.8.12A7,7,0,0,0,6.58,2.48,7.06,7.06,0,0,0,5.52,9.85a7.15,7.15,0,0,0,4.12,3.73,6.88,6.88,0,0,0,2.71.38l.65-.08a7.28,7.28,0,0,0,1.79-.51,7,7,0,0,0,2.65-2.14c.12-.16.25-.32.37-.5a6.92,6.92,0,0,0,.59-1.1A7.19,7.19,0,0,0,18.81,5.91Zm-2.33,3.7a5.24,5.24,0,0,1-4.39,2.65l-.17,0A5.28,5.28,0,0,1,10.84,1.82a5.25,5.25,0,0,1,5.65,2.57A5.39,5.39,0,0,1,17.2,7,5.18,5.18,0,0,1,16.48,9.61Z"/><path d="M24.06,21.7a12.89,12.89,0,0,0-.9-3.78,8,8,0,0,0-.44-.94,7.16,7.16,0,0,0-.55-.84,5.25,5.25,0,0,0-3.5-2.07,3.42,3.42,0,0,0-1.06,0,2.12,2.12,0,0,0-.9.4c-.31.23-.64.43-1,.63a7.21,7.21,0,0,1-2.7,1,6.55,6.55,0,0,1-4.58-1c-.35-.22-.7-.46-1.06-.67l-.18-.11a1.93,1.93,0,0,0-.87-.3,5.31,5.31,0,0,0-2.64.63A5.91,5.91,0,0,0,1,17.85a15.14,15.14,0,0,0-1,7A4.28,4.28,0,0,0,2,28.09,5.47,5.47,0,0,0,5.19,29h11c.88,0,1.77,0,2.65,0a8.21,8.21,0,0,0,1-.05,5.22,5.22,0,0,0,1.66-.45,4.5,4.5,0,0,0,1.56-1.19,4.73,4.73,0,0,0,1.1-3A24.55,24.55,0,0,0,24.06,21.7Zm-4.81,5.6H5.18a3.91,3.91,0,0,1-2-.46,2.82,2.82,0,0,1-1.46-2.5,14.58,14.58,0,0,1,.84-5.7,5.6,5.6,0,0,1,1.2-1.93,3.44,3.44,0,0,1,2.3-1h.1a.43.43,0,0,1,.26.09c.38.23.75.48,1.12.71a8.35,8.35,0,0,0,4.54,1.39c.2,0,.41,0,.61,0a8,8,0,0,0,1.4-.24,8.66,8.66,0,0,0,2.43-1l1.11-.7.15-.1a.69.69,0,0,1,.37-.08,3.57,3.57,0,0,1,3,1.93l.13.21a10.51,10.51,0,0,1,1.08,3.87c.08.74.11,1.49.12,2.23A3,3,0,0,1,19.25,27.3Z"/></g></g></svg>