<svg width="29" height="29" viewBox="0 0 29 29" fill="none" xmlns="http://www.w3.org/2000/svg">
<g clip-path="url(#clip0_1_81)">
<path d="M14.1064 0C14.3708 0 14.6352 0 14.8991 0C15.7456 0.169677 16.3368 0.718431 16.9224 1.30691C20.5094 4.91098 24.1039 8.50768 27.7091 12.0942C28.3071 12.6889 28.8512 13.295 28.9999 14.1598C28.9999 14.3862 28.9999 14.6126 28.9999 14.8396C28.9846 14.8731 28.9624 14.9055 28.9551 14.9412C28.6702 16.3185 27.6535 17.1578 26.256 17.1663C26.138 17.1669 26.0205 17.1663 25.8889 17.1663C25.8889 17.3258 25.8889 17.4387 25.8889 17.5511C25.8889 20.2789 25.8906 23.0068 25.8883 25.7353C25.8866 27.6568 24.5493 28.996 22.6337 28.9989C21.1994 29.0011 19.7644 28.9994 18.3301 28.9994C17.5976 28.9994 17.2866 28.685 17.2866 27.9439C17.2861 25.7727 17.2883 23.6015 17.2855 21.4309C17.2844 20.4849 16.696 19.9004 15.7456 19.8965C14.9342 19.8931 14.1223 19.8948 13.3104 19.8959C12.2839 19.8976 11.7171 20.4639 11.7165 21.4905C11.7154 23.6617 11.7171 25.8329 11.7154 28.0035C11.7148 28.6663 11.3824 28.9994 10.7259 28.9994C9.26314 29.0006 7.79983 29.004 6.33709 28.996C6.06588 28.9943 5.78786 28.9722 5.52459 28.9098C4.07206 28.5642 3.11941 27.3435 3.11601 25.8181C3.10976 23.0522 3.1143 20.2869 3.1143 17.521C3.1143 17.4115 3.1143 17.3014 3.1143 17.2055C3.0604 17.185 3.04338 17.1737 3.02579 17.1731C2.88451 17.1697 2.74266 17.172 2.60138 17.1652C1.62263 17.1181 0.869131 16.6788 0.369258 15.8378C-0.270194 14.763 -0.0682021 13.4692 0.87367 12.5266C4.60371 8.79256 8.33886 5.06647 12.061 1.32677C12.6533 0.732051 13.2485 0.171947 14.1064 0Z" fill="#E81224"/>
</g>
<defs>
<clipPath id="clip0_1_81">
<rect width="29" height="29" fill="white"/>
</clipPath>
</defs>
</svg>
