<svg width="29" height="30" viewBox="0 0 29 30" fill="none" xmlns="http://www.w3.org/2000/svg">
<path d="M16.2136 2.01234L16.2135 2.01225C15.6538 1.44979 15.2653 1.12212 14.7881 1H14.7877H14.7862H14.7846H14.7831H14.7815H14.78H14.7784H14.7769H14.7753H14.7738H14.7722H14.7707H14.7692H14.7676H14.7661H14.7645H14.763H14.7614H14.7599H14.7583H14.7568H14.7552H14.7537H14.7521H14.7506H14.749H14.7475H14.7459H14.7444H14.7429H14.7413H14.7398H14.7382H14.7367H14.7351H14.7336H14.732H14.7305H14.7289H14.7274H14.7258H14.7243H14.7227H14.7212H14.7196H14.7181H14.7165H14.715H14.7135H14.7119H14.7104H14.7088H14.7073H14.7057H14.7042H14.7026H14.7011H14.6995H14.698H14.6964H14.6949H14.6933H14.6918H14.6902H14.6887H14.6871H14.6856H14.6841H14.6825H14.681H14.6794H14.6779H14.6763H14.6748H14.6732H14.6717H14.6701H14.6686H14.667H14.6655H14.6639H14.6624H14.6608H14.6593H14.6577H14.6562H14.6546H14.6531H14.6516H14.65H14.6485H14.6469H14.6454H14.6438H14.6423H14.6407H14.6392H14.6376H14.6361H14.6345H14.633H14.6314H14.6299H14.6283H14.6268H14.6252H14.6237H14.6221H14.6206H14.6191H14.6175H14.616H14.6144H14.6129H14.6113H14.6098H14.6082H14.6067H14.6051H14.6036H14.602H14.6005H14.5989H14.5974H14.5958H14.5943H14.5927H14.5912H14.5896H14.5881H14.5865H14.585H14.5834H14.5819H14.5804H14.5788H14.5773H14.5757H14.5742H14.5726H14.5711H14.5695H14.568H14.5664H14.5649H14.5633H14.5618H14.5602H14.5587H14.5571H14.5556H14.554H14.5525H14.5509H14.5494H14.5478H14.5463H14.5447H14.5432H14.5416H14.5401H14.5386H14.537H14.5355H14.5339H14.5324H14.5308H14.5293H14.5277H14.5262H14.5246H14.5231H14.5215H14.52H14.5184H14.5169H14.5153H14.5138H14.5122H14.5107H14.5091H14.5076H14.506H14.5045H14.5029H14.5014H14.4998H14.4983H14.4967H14.4952H14.4936H14.4921H14.4906H14.489H14.4875H14.4859H14.4844H14.4828H14.4813H14.4797H14.4782H14.4766H14.4751H14.4735H14.472H14.4704H14.4689H14.4673H14.4658H14.4642H14.4627H14.4611H14.4596H14.458H14.4565H14.4549H14.4534H14.4518H14.4503H14.4487H14.4472H14.4456H14.4441H14.4425H14.441H14.4395H14.4379H14.4364H14.4348H14.4333H14.4317H14.4302H14.4286H14.4271H14.4255H14.424H14.4224H14.4209H14.4193H14.4178H14.4162H14.4147H14.4131H14.4116H14.41H14.4085H14.4069H14.4054H14.4038H14.4023H14.4007H14.3992H14.3976H14.3961H14.3945H14.393H14.3914H14.3899H14.3883H14.3868H14.3852H14.3837H14.3821H14.3806H14.379H14.3775H14.376H14.3744H14.3729H14.3713H14.3698H14.3682H14.3667H14.3651H14.3636H14.362H14.3605H14.3589H14.3574H14.3558H14.3543H14.3527H14.3512H14.3496H14.3481H14.3465H14.345H14.3434H14.3419H14.3403H14.3388H14.3372H14.3357H14.3341H14.3326H14.331H14.3295H14.3279H14.3264H14.3248H14.3233H14.3217H14.3202H14.3186H14.3171H14.3155H14.314H14.3124H14.3109H14.3093H14.3078H14.3062H14.3047H14.3032H14.3016H14.3001H14.2985H14.297H14.2954H14.2939H14.2923H14.2908H14.2892H14.2877H14.2861H14.2846H14.283H14.2815H14.2799H14.2784H14.2768H14.2753H14.2737H14.2722H14.2706H14.2691H14.2675H14.266H14.2644H14.2629H14.2613H14.2598H14.2582H14.2567H14.2551H14.2536H14.252H14.2505H14.2489H14.2474H14.2458H14.2443H14.2427H14.2412H14.2396H14.2381H14.2365H14.235H14.2334H14.2319H14.2303H14.2288H14.2272H14.2257H14.2241H14.2226H14.221H14.2195H14.2179H14.2164H14.2149H14.2133H14.2118H14.2102H14.2087H14.2071H14.2056H14.204H14.2025H14.2009H14.1994H14.1978H14.1963H14.1947H14.1932H14.1916H14.1901H14.1885H14.187H14.1854H14.1839H14.1823H14.1808H14.1792H14.1777H14.1761H14.1746H14.173H14.1715H14.1699H14.1684H14.1668H14.1653H14.1637H14.1622H14.1606H14.1591H14.1575H14.156H14.1544H14.1529H14.1513H14.1498H14.1482H14.1467H14.1451H14.1436H14.142H14.1405H14.1389H14.1374H14.1358H14.1343H14.1327H14.1312H14.1296H14.1281H14.1265H14.125H14.1234H14.1219H14.1203H14.1188H14.1172H14.1157H14.1142H14.1126H14.1111H14.1095H14.108H14.1064L16.2136 2.01234ZM16.2136 2.01234C19.8016 5.61738 23.3972 9.21526 27.0038 12.8031L27.0039 12.8032M16.2136 2.01234L27.0039 12.8032M27.0039 12.8032C27.5711 13.3673 27.8928 13.7659 27.9999 14.2552V14.2553V14.2566V14.258V14.2593V14.2606V14.262V14.2633V14.2646V14.2659V14.2673V14.2686V14.2699V14.2712V14.2726V14.2739V14.2752V14.2765V14.2779V14.2792V14.2805V14.2819V14.2832V14.2845V14.2858V14.2872V14.2885V14.2898V14.2911V14.2925V14.2938V14.2951V14.2964V14.2978V14.2991V14.3004V14.3018V14.3031V14.3044V14.3057V14.3071V14.3084V14.3097V14.311V14.3124V14.3137V14.315V14.3164V14.3177V14.319V14.3203V14.3217V14.323V14.3243V14.3256V14.327V14.3283V14.3296V14.3309V14.3323V14.3336V14.3349V14.3363V14.3376V14.3389V14.3402V14.3416V14.3429V14.3442V14.3455V14.3469V14.3482V14.3495V14.3509V14.3522V14.3535V14.3548V14.3562V14.3575V14.3588V14.3601V14.3615V14.3628V14.3641V14.3654V14.3668V14.3681V14.3694V14.3708V14.3721V14.3734V14.3747V14.3761V14.3774V14.3787V14.38V14.3814V14.3827V14.384V14.3854V14.3867V14.388V14.3893V14.3907V14.392V14.3933V14.3946V14.396V14.3973V14.3986V14.4V14.4013V14.4026V14.4039V14.4053V14.4066V14.4079V14.4092V14.4106V14.4119V14.4132V14.4146V14.4159V14.4172V14.4185V14.4199V14.4212V14.4225V14.4238V14.4252V14.4265V14.4278V14.4292V14.4305V14.4318V14.4331V14.4345V14.4358V14.4371V14.4384V14.4398V14.4411V14.4424V14.4438V14.4451V14.4464V14.4477V14.4491V14.4504V14.4517V14.453V14.4544V14.4557V14.457V14.4584V14.4597V14.461V14.4623V14.4637V14.465V14.4663V14.4676V14.469V14.4703V14.4716V14.473V14.4743V14.4756V14.4769V14.4783V14.4796V14.4809V14.4822V14.4836V14.4849V14.4862V14.4876V14.4889V14.4902V14.4915V14.4929V14.4942V14.4955V14.4968V14.4982V14.4995V14.5008V14.5022V14.5035V14.5048V14.5061V14.5075V14.5088V14.5101V14.5115V14.5128V14.5141V14.5154V14.5168V14.5181V14.5194V14.5207V14.5221V14.5234V14.5247V14.5261V14.5274V14.5287V14.53V14.5314V14.5327V14.534V14.5353V14.5367V14.538V14.5393V14.5407V14.542V14.5433V14.5446V14.546V14.5473V14.5486V14.55V14.5513V14.5526V14.5539V14.5553V14.5566V14.5579V14.5592V14.5606V14.5619V14.5632V14.5646V14.5659V14.5672V14.5685V14.5699V14.5712V14.5725V14.5739V14.5752V14.5765V14.5778V14.5792V14.5805V14.5818V14.5832V14.5845V14.5858V14.5871V14.5885V14.5898V14.5911V14.5924V14.5938V14.5951V14.5964V14.5978V14.5991V14.6004V14.6017V14.6031V14.6044V14.6057V14.6071V14.6084V14.6097V14.611V14.6124V14.6137V14.615V14.6164V14.6177V14.619V14.6203V14.6217V14.623V14.6243V14.6257V14.627V14.6283V14.6296V14.631V14.6323V14.6336V14.6349V14.6363V14.6376V14.6389V14.6403V14.6416V14.6429V14.6433M27.0039 12.8032L27.9999 14.6433M24.8889 16.1663H25.8889C25.9375 16.1663 25.9824 16.1664 26.0253 16.1664C26.1043 16.1666 26.1763 16.1667 26.2509 16.1663M24.8889 16.1663L26.2512 16.1663C26.2511 16.1663 26.251 16.1663 26.2509 16.1663M24.8889 16.1663V17.1663M24.8889 16.1663V17.1663M26.2509 16.1663C26.7453 16.1631 27.119 16.0162 27.3865 15.7956C27.6546 15.5745 27.8737 15.2318 27.9757 14.7392L26.2509 16.1663ZM27.9999 14.6433C27.9911 14.6729 27.9828 14.7048 27.9758 14.7387L27.9999 14.6433ZM24.8889 17.1663V17.1672M24.8889 17.1663V17.1672M22.6322 27.9989H22.6323C23.3511 27.9978 23.9017 27.7502 24.2708 27.3803C24.6399 27.0103 24.8877 26.4574 24.8883 25.7344L22.6322 27.9989ZM22.6322 27.9989C21.6293 28.0005 20.6267 28.0001 19.6231 27.9997C19.1923 27.9996 18.7613 27.9994 18.3301 27.9994C18.3149 27.9994 18.3008 27.9992 18.2876 27.9988C18.287 27.9821 18.2866 27.9639 18.2866 27.9439V27.9437M22.6322 27.9989L18.2866 27.9437M18.2866 27.9437C18.2864 27.1688 18.2866 26.3933 18.2868 25.6176M18.2866 27.9437L18.2868 25.6176M13.3087 18.8959L13.309 18.8959C13.3899 18.8958 13.471 18.8957 13.5521 18.8955C14.2826 18.8945 15.0164 18.8934 15.7498 18.8965C16.4306 18.8993 17.0876 19.1145 17.5771 19.6018C18.0674 20.09 18.2847 20.7468 18.2855 21.4296L13.3087 18.8959ZM13.3087 18.8959C12.6166 18.897 11.9318 19.0915 11.4216 19.6018C10.9112 20.1123 10.7169 20.7973 10.7165 21.49V21.49M13.3087 18.8959L10.7165 21.49M10.7165 21.49C10.716 22.4788 10.7161 23.4657 10.7162 24.4522C10.7163 25.6344 10.7163 26.816 10.7154 27.9994M10.7165 21.49L10.7154 27.9994M10.7154 27.9994C10.4743 27.9996 10.2333 27.9999 9.99245 28.0001C8.77371 28.0014 7.55848 28.0026 6.34337 27.996C6.11792 27.9946 5.9209 27.976 5.75557 27.9368C4.7656 27.7011 4.1184 26.8919 4.116 25.8159C4.11161 23.8709 4.11256 21.927 4.11351 19.9814C4.1139 19.1617 4.1143 18.3416 4.1143 17.521V17.5203V17.5197V17.5191V17.5184V17.5178V17.5171V17.5165V17.5159V17.5152V17.5146V17.5139V17.5133V17.5126V17.512V17.5114V17.5107V17.5101V17.5094V17.5088V17.5082V17.5075V17.5069V17.5062V17.5056V17.5049V17.5043V17.5037V17.503V17.5024V17.5017V17.5011V17.5004V17.4998V17.4992V17.4985V17.4979V17.4972V17.4966V17.496V17.4953V17.4947V17.494V17.4934V17.4927V17.4921V17.4915V17.4908V17.4902V17.4895V17.4889V17.4883V17.4876V17.487V17.4863V17.4857V17.485V17.4844V17.4838V17.4831V17.4825V17.4818V17.4812V17.4806V17.4799V17.4793V17.4786V17.478V17.4774V17.4767V17.4761V17.4754V17.4748V17.4741V17.4735V17.4729V17.4722V17.4716V17.4709V17.4703V17.4697V17.469V17.4684V17.4677V17.4671V17.4665V17.4658V17.4652V17.4645V17.4639V17.4633V17.4626V17.462V17.4613V17.4607V17.4601V17.4594V17.4588V17.4581V17.4575V17.4569V17.4562V17.4556V17.4549V17.4543V17.4537V17.453V17.4524V17.4517V17.4511V17.4505V17.4498V17.4492V17.4485V17.4479V17.4473V17.4466V17.446V17.4454V17.4447V17.4441V17.4434V17.4428V17.4422V17.4415V17.4409V17.4402V17.4396V17.439V17.4383V17.4377V17.4371V17.4364V17.4358V17.4351V17.4345V17.4339V17.4332V17.4326V17.432V17.4313V17.4307V17.43V17.4294V17.4288V17.4281V17.4275V17.4269V17.4262V17.4256V17.4249V17.4243V17.4237V17.423V17.4224V17.4218V17.4211V17.4205V17.4199V17.4192V17.4186V17.418V17.4173V17.4167V17.4161V17.4154V17.4148V17.4141V17.4135V17.4129V17.4122V17.4116V17.411V17.4103V17.4097V17.4091V17.4084V17.4078V17.4072V17.4065V17.4059V17.4053V17.4046V17.404V17.4034V17.4027V17.4021V17.4015V17.4008V17.4002V17.3996V17.3989V17.3983V17.3977V17.397V17.3964V17.3958V17.3952V17.3945V17.3939V17.3933V17.3926V17.392V17.3914V17.3907V17.3901V17.3895V17.3888V17.3882V17.3876V17.387V17.3863V17.3857V17.3851V17.3844V17.3838V17.3832V17.3825V17.3819V17.3813V17.3807V17.38V17.3794V17.3788V17.3781V17.3775V17.3769V17.3763V17.3756V17.375V17.3744V17.3738V17.3731V17.3725V17.3719V17.3712V17.3706V17.37V17.3694V17.3687V17.3681V17.3675V17.3669V17.3662V17.3656V17.365V17.3644V17.3637V17.3631V17.3625V17.3619V17.3612V17.3606V17.36V17.3594V17.3587V17.3581V17.3575V17.3569V17.3562V17.3556V17.355V17.3544V17.3538V17.3531V17.3525V17.3519V17.3513V17.3506V17.35V17.3494V17.3488V17.3482V17.3475V17.3469V17.3463V17.3457V17.3451V17.3444V17.3438V17.3432V17.3426V17.342V17.3413V17.3407V17.3401V17.3395V17.3389V17.3383V17.3376V17.337V17.3364V17.3358V17.3352V17.3345V17.3339V17.3333V17.3327V17.3321V17.3315V17.3308V17.3302V17.3296V17.329V17.3284V17.3278V17.3272V17.3265V17.3259V17.3253V17.3247V17.3241V17.3235V17.3229V17.3222V17.3216V17.321V17.3204V17.3198V17.3192V17.3186V17.318V17.3173V17.3167V17.3161V17.3155V17.3149V17.3143V17.3137V17.3131V17.3125V17.3118V17.3112V17.3106V17.31V17.3094V17.3088V17.3082V17.3076V17.307V17.3064V17.3058V17.3051V17.3045V17.3039V17.3033V17.3027V17.3021V17.3015V17.3009V17.3003V17.2997V17.2991V17.2985V17.2979V17.2973V17.2967V17.2961V17.2955V17.2949V17.2942V17.2936V17.293V17.2924V17.2918V17.2912V17.2906V17.29V17.2894V17.2888V17.2882V17.2876V17.287V17.2864V17.2858V17.2852V17.2846V17.284V17.2834V17.2828V17.2822V17.2816V17.281V17.2804V17.2798V17.2792V17.2786V17.278V17.2774V17.2768V17.2762V17.2756V17.275V17.2745V17.2739V17.2733V17.2727V17.2721V17.2715V17.2709V17.2703V17.2697V17.2691V17.2685V17.2679V17.2673V17.2667V17.2661V17.2655V17.2649V17.2644V17.2638V17.2632V17.2626V17.262V17.2614V17.2608V17.2602V17.2596V17.259V17.2585V17.2579V17.2573V17.2567V17.2561V17.2555V17.2549V17.2543V17.2537V17.2532V17.2526V17.252V17.2514V17.2508V17.2502V17.2496V17.2491V17.2485V17.2479V17.2473V17.2467V17.2461V17.2456V17.245V17.2444V17.2438V17.2432V17.2426V17.2421V17.2415V17.2409V17.2403V17.2397V17.2392V17.2386V17.238V17.2374V17.2368V17.2363V17.2357V17.2351V17.2345V17.234V17.2334V17.2328V17.2322V17.2316V17.2311V17.2305V17.2299V17.2293V17.2288V17.2282V17.2276V17.227V17.2265V17.2259V17.2253V17.2248V17.2242V17.2236V17.223V17.2225V17.2219V17.2213V17.2208V17.2202V17.2196V17.219V17.2185V17.2179V17.2173V17.2168V17.2162V17.2156V17.2151V17.2145V17.2139V17.2134V17.2128V17.2122V17.2117V17.2111V17.2105V17.21V17.2094V17.2088V17.2083V17.2077V17.2072V17.2066V17.206V17.2055V16.5151L3.46871 16.2704L10.7154 27.9994ZM3.02579 17.1731L3.05798 16.1736L3.0499 16.1734L3.02579 17.1731ZM3.02579 17.1731C3.0368 17.1735 3.04759 17.1781 3.06735 17.1864C3.07915 17.1915 3.09415 17.1978 3.1143 17.2055L2.60138 17.1652M3.02579 17.1731C2.97143 17.1718 2.91698 17.1713 2.86251 17.1709C2.77543 17.1701 2.6883 17.1694 2.60138 17.1652M2.60138 17.1652L2.64952 16.1663L2.64945 16.1663L2.60138 17.1652ZM24.8889 17.1672V17.1682M24.8889 17.1672V17.1682M24.8889 17.1682V17.1691M24.8889 17.1682V17.1691M24.8889 17.1691V17.17M24.8889 17.1691V17.17M24.8889 17.17V17.171M24.8889 17.17V17.171M24.8889 17.171V17.1719M24.8889 17.171V17.1719M24.8889 17.1719V17.1728M24.8889 17.1719V17.1728M24.8889 17.1728V17.1737M24.8889 17.1728V17.1737M24.8889 17.1737V17.1747M24.8889 17.1737V17.1747M24.8889 17.1747V17.1756M24.8889 17.1747V17.1756M24.8889 17.1756V17.1765M24.8889 17.1756V17.1765M24.8889 17.1765V17.1774M24.8889 17.1765V17.1774M24.8889 17.1774V17.1784M24.8889 17.1774V17.1784M24.8889 17.1784V17.1793M24.8889 17.1784V17.1793M24.8889 17.1793V17.1802M24.8889 17.1793V17.1802M24.8889 17.1802V17.1811M24.8889 17.1802V17.1811M24.8889 17.1811V17.182M24.8889 17.1811V17.182M24.8889 17.182V17.183M24.8889 17.182V17.183M24.8889 17.183V17.1839M24.8889 17.183V17.1839M24.8889 17.1839V17.1848M24.8889 17.1839V17.1848M24.8889 17.1848V17.1857M24.8889 17.1848V17.1857M24.8889 17.1857V17.1866M24.8889 17.1857V17.1866M24.8889 17.1866V17.1875M24.8889 17.1866V17.1875M24.8889 17.1875V17.1884M24.8889 17.1875V17.1884M24.8889 17.1884V17.1893M24.8889 17.1884V17.1893M24.8889 17.1893V17.1902M24.8889 17.1893V17.1902M24.8889 17.1902V17.1912M24.8889 17.1902V17.1912M24.8889 17.1912V17.1921M24.8889 17.1912V17.1921M24.8889 17.1921V17.193M24.8889 17.1921V17.193M24.8889 17.193V17.1939M24.8889 17.193V17.1939M24.8889 17.1939V17.1948M24.8889 17.1939V17.1948M24.8889 17.1948V17.1957M24.8889 17.1948V17.1957M24.8889 17.1957V17.1966M24.8889 17.1957V17.1966M24.8889 17.1966V17.1975M24.8889 17.1966V17.1975M24.8889 17.1975V17.1984M24.8889 17.1975V17.1984M24.8889 17.1984V17.1993M24.8889 17.1984V17.1993M24.8889 17.1993V17.2002M24.8889 17.1993V17.2002M24.8889 17.2002V17.2011M24.8889 17.2002V17.2011M24.8889 17.2011V17.202M24.8889 17.2011V17.202M24.8889 17.202V17.2029M24.8889 17.202V17.2029M24.8889 17.2029V17.2037M24.8889 17.2029V17.2037M24.8889 17.2037V17.2046M24.8889 17.2037V17.2046M24.8889 17.2046V17.2055M24.8889 17.2046V17.2055M24.8889 17.2055V17.2064M24.8889 17.2055V17.2064M24.8889 17.2064V17.2073M24.8889 17.2064V17.2073M24.8889 17.2073V17.2082M24.8889 17.2073V17.2082M24.8889 17.2082V17.2091M24.8889 17.2082V17.2091M24.8889 17.2091V17.21M24.8889 17.2091V17.21M24.8889 17.21V17.2109M24.8889 17.21V17.2109M24.8889 17.2109V17.2117M24.8889 17.2109V17.2117M24.8889 17.2117V17.2126M24.8889 17.2117V17.2126M24.8889 17.2126V17.2135M24.8889 17.2126V17.2135M24.8889 17.2135V17.2144M24.8889 17.2135V17.2144M24.8889 17.2144V17.2153M24.8889 17.2144V17.2153M24.8889 17.2153V17.2161M24.8889 17.2153V17.2161M24.8889 17.2161V17.217M24.8889 17.2161V17.217M24.8889 17.217V17.2179M24.8889 17.217V17.2179M24.8889 17.2179V17.2188M24.8889 17.2179V17.2188M24.8889 17.2188V17.2197M24.8889 17.2188V17.2197M24.8889 17.2197V17.2205M24.8889 17.2197V17.2205M24.8889 17.2205V17.2214M24.8889 17.2205V17.2214M24.8889 17.2214V17.2223M24.8889 17.2214V17.2223M24.8889 17.2223V17.2231M24.8889 17.2223V17.2231M24.8889 17.2231V17.224M24.8889 17.2231V17.224M24.8889 17.224V17.2249M24.8889 17.224V17.2249M24.8889 17.2249V17.2258M24.8889 17.2249V17.2258M24.8889 17.2258V17.2266M24.8889 17.2258V17.2266M24.8889 17.2266V17.2275M24.8889 17.2266V17.2275M24.8889 17.2275V17.2284M24.8889 17.2275V17.2284M24.8889 17.2284V17.2292M24.8889 17.2284V17.2292M24.8889 17.2292V17.2301M24.8889 17.2292V17.2301M24.8889 17.2301V17.2309M24.8889 17.2301V17.2309M24.8889 17.2309V17.2318M24.8889 17.2309V17.2318M24.8889 17.2318V17.2327M24.8889 17.2318V17.2327M24.8889 17.2327V17.2335M24.8889 17.2327V17.2335M24.8889 17.2335V17.2344M24.8889 17.2335V17.2344M24.8889 17.2344V17.2353M24.8889 17.2344V17.2353M24.8889 17.2353V17.2361M24.8889 17.2353V17.2361M24.8889 17.2361V17.237M24.8889 17.2361V17.237M24.8889 17.237V17.2378M24.8889 17.237V17.2378M24.8889 17.2378V17.2387M24.8889 17.2378V17.2387M24.8889 17.2387V17.2395M24.8889 17.2387V17.2395M24.8889 17.2395V17.2404M24.8889 17.2395V17.2404M24.8889 17.2404V17.2412M24.8889 17.2404V17.2412M24.8889 17.2412V17.2421M24.8889 17.2412V17.2421M24.8889 17.2421V17.2429M24.8889 17.2421V17.2429M24.8889 17.2429V17.2438M24.8889 17.2429V17.2438M24.8889 17.2438V17.2446M24.8889 17.2438V17.2446M24.8889 17.2446V17.2455M24.8889 17.2446V17.2455M24.8889 17.2455V17.2463M24.8889 17.2455V17.2463M24.8889 17.2463V17.2472M24.8889 17.2463V17.2472M24.8889 17.2472V17.248M24.8889 17.2472V17.248M24.8889 17.248V17.2489M24.8889 17.248V17.2489M24.8889 17.2489V17.2497M24.8889 17.2489V17.2497M24.8889 17.2497V17.2506M24.8889 17.2497V17.2506M24.8889 17.2506V17.2514M24.8889 17.2506V17.2514M24.8889 17.2514V17.2522M24.8889 17.2514V17.2522M24.8889 17.2522V17.2531M24.8889 17.2522V17.2531M24.8889 17.2531V17.2539M24.8889 17.2531V17.2539M24.8889 17.2539V17.2548M24.8889 17.2539V17.2548M24.8889 17.2548V17.2556M24.8889 17.2548V17.2556M24.8889 17.2556V17.2564M24.8889 17.2556V17.2564M24.8889 17.2564V17.2573M24.8889 17.2564V17.2573M24.8889 17.2573V17.2581M24.8889 17.2573V17.2581M24.8889 17.2581V17.2589M24.8889 17.2581V17.2589M24.8889 17.2589V17.2598M24.8889 17.2589V17.2598M24.8889 17.2598V17.2606M24.8889 17.2598V17.2606M24.8889 17.2606V17.2614M24.8889 17.2606V17.2614M24.8889 17.2614V17.2623M24.8889 17.2614V17.2623M24.8889 17.2623V17.2631M24.8889 17.2623V17.2631M24.8889 17.2631V17.2639M24.8889 17.2631V17.2639M24.8889 17.2639V17.2648M24.8889 17.2639V17.2648M24.8889 17.2648V17.2656M24.8889 17.2648V17.2656M24.8889 17.2656V17.2664M24.8889 17.2656V17.2664M24.8889 17.2664V17.2672M24.8889 17.2664V17.2672M24.8889 17.2672V17.2681M24.8889 17.2672V17.2681M24.8889 17.2681V17.2689M24.8889 17.2681V17.2689M24.8889 17.2689V17.2697M24.8889 17.2689V17.2697M24.8889 17.2697V17.2705M24.8889 17.2697V17.2705M24.8889 17.2705V17.2714M24.8889 17.2705V17.2714M24.8889 17.2714V17.2722M24.8889 17.2714V17.2722M24.8889 17.2722V17.273M24.8889 17.2722V17.273M24.8889 17.273V17.2738M24.8889 17.273V17.2738M24.8889 17.2738V17.2746M24.8889 17.2738V17.2746M24.8889 17.2746V17.2755M24.8889 17.2746V17.2755M24.8889 17.2755V17.2763M24.8889 17.2755V17.2763M24.8889 17.2763V17.2771M24.8889 17.2763V17.2771M24.8889 17.2771V17.2779M24.8889 17.2771V17.2779M24.8889 17.2779V17.2787M24.8889 17.2779V17.2787M24.8889 17.2787V17.2795M24.8889 17.2787V17.2795M24.8889 17.2795V17.2803M24.8889 17.2795V17.2803M24.8889 17.2803V17.2812M24.8889 17.2803V17.2812M24.8889 17.2812V17.282M24.8889 17.2812V17.282M24.8889 17.282V17.2828M24.8889 17.282V17.2828M24.8889 17.2828V17.2836M24.8889 17.2828V17.2836M24.8889 17.2836V17.2844M24.8889 17.2836V17.2844M24.8889 17.2844V17.2852M24.8889 17.2844V17.2852M24.8889 17.2852V17.286M24.8889 17.2852V17.286M24.8889 17.286V17.2868M24.8889 17.286V17.2868M24.8889 17.2868V17.2876M24.8889 17.2868V17.2876M24.8889 17.2876V17.2884M24.8889 17.2876V17.2884M24.8889 17.2884V17.2892M24.8889 17.2884V17.2892M24.8889 17.2892V17.29M24.8889 17.2892V17.29M24.8889 17.29V17.2908M24.8889 17.29V17.2908M24.8889 17.2908V17.2916M24.8889 17.2908V17.2916M24.8889 17.2916V17.2924M24.8889 17.2916V17.2924M24.8889 17.2924V17.2932M24.8889 17.2924V17.2932M24.8889 17.2932V17.294M24.8889 17.2932V17.294M24.8889 17.294V17.2948M24.8889 17.294V17.2948M24.8889 17.2948V17.2956M24.8889 17.2948V17.2956M24.8889 17.2956V17.2964M24.8889 17.2956V17.2964M24.8889 17.2964V17.2972M24.8889 17.2964V17.2972M24.8889 17.2972V17.298M24.8889 17.2972V17.298M24.8889 17.298V17.2988M24.8889 17.298V17.2988M24.8889 17.2988V17.2996M24.8889 17.2988V17.2996M24.8889 17.2996V17.3004M24.8889 17.2996V17.3004M24.8889 17.3004V17.3012M24.8889 17.3004V17.3012M24.8889 17.3012V17.302M24.8889 17.3012V17.302M24.8889 17.302V17.3028M24.8889 17.302V17.3028M24.8889 17.3028V17.3036M24.8889 17.3028V17.3036M24.8889 17.3036V17.3044M24.8889 17.3036V17.3044M24.8889 17.3044V17.3052M24.8889 17.3044V17.3052M24.8889 17.3052V17.3059M24.8889 17.3052V17.3059M24.8889 17.3059V17.3067M24.8889 17.3059V17.3067M24.8889 17.3067V17.3075M24.8889 17.3067V17.3075M24.8889 17.3075V17.3083M24.8889 17.3075V17.3083M24.8889 17.3083V17.3091M24.8889 17.3083V17.3091M24.8889 17.3091V17.3099M24.8889 17.3091V17.3099M24.8889 17.3099V17.3107M24.8889 17.3099V17.3107M24.8889 17.3107V17.3114M24.8889 17.3107V17.3114M24.8889 17.3114V17.3122M24.8889 17.3114V17.3122M24.8889 17.3122V17.313M24.8889 17.3122V17.313M24.8889 17.313V17.3138M24.8889 17.313V17.3138M24.8889 17.3138V17.3146M24.8889 17.3138V17.3146M24.8889 17.3146V17.3153M24.8889 17.3146V17.3153M24.8889 17.3153V17.3161M24.8889 17.3153V17.3161M24.8889 17.3161V17.3169M24.8889 17.3161V17.3169M24.8889 17.3169V17.3177M24.8889 17.3169V17.3177M24.8889 17.3177V17.3185M24.8889 17.3177V17.3185M24.8889 17.3185V17.3192M24.8889 17.3185V17.3192M24.8889 17.3192V17.32M24.8889 17.3192V17.32M24.8889 17.32V17.3208M24.8889 17.32V17.3208M24.8889 17.3208V17.3216M24.8889 17.3208V17.3216M24.8889 17.3216V17.3223M24.8889 17.3216V17.3223M24.8889 17.3223V17.3231M24.8889 17.3223V17.3231M24.8889 17.3231V17.3239M24.8889 17.3231V17.3239M24.8889 17.3239V17.3247M24.8889 17.3239V17.3247M24.8889 17.3247V17.3254M24.8889 17.3247V17.3254M24.8889 17.3254V17.3262M24.8889 17.3254V17.3262M24.8889 17.3262V17.327M24.8889 17.3262V17.327M24.8889 17.327V17.3277M24.8889 17.327V17.3277M24.8889 17.3277V17.3285M24.8889 17.3277V17.3285M24.8889 17.3285V17.3293M24.8889 17.3285V17.3293M24.8889 17.3293V17.33M24.8889 17.3293V17.33M24.8889 17.33V17.3308M24.8889 17.33V17.3308M24.8889 17.3308V17.3316M24.8889 17.3308V17.3316M24.8889 17.3316V17.3323M24.8889 17.3316V17.3323M24.8889 17.3323V17.3331M24.8889 17.3323V17.3331M24.8889 17.3331V17.3339M24.8889 17.3331V17.3339M24.8889 17.3339V17.3346M24.8889 17.3339V17.3346M24.8889 17.3346V17.3354M24.8889 17.3346V17.3354M24.8889 17.3354V17.3361M24.8889 17.3354V17.3361M24.8889 17.3361V17.3369M24.8889 17.3361V17.3369M24.8889 17.3369V17.3377M24.8889 17.3369V17.3377M24.8889 17.3377V17.3384M24.8889 17.3377V17.3384M24.8889 17.3384V17.3392M24.8889 17.3384V17.3392M24.8889 17.3392V17.3399M24.8889 17.3392V17.3399M24.8889 17.3399V17.3407M24.8889 17.3399V17.3407M24.8889 17.3407V17.3415M24.8889 17.3407V17.3415M24.8889 17.3415V17.3422M24.8889 17.3415V17.3422M24.8889 17.3422V17.343M24.8889 17.3422V17.343M24.8889 17.343V17.3437M24.8889 17.343V17.3437M24.8889 17.3437V17.3445M24.8889 17.3437V17.3445M24.8889 17.3445V17.3452M24.8889 17.3445V17.3452M24.8889 17.3452V17.346M24.8889 17.3452V17.346M24.8889 17.346V17.3467M24.8889 17.346V17.3467M24.8889 17.3467V17.3475M24.8889 17.3467V17.3475M24.8889 17.3475V17.3482M24.8889 17.3475V17.3482M24.8889 17.3482V17.349M24.8889 17.3482V17.349M24.8889 17.349V17.3497M24.8889 17.349V17.3497M24.8889 17.3497V17.3505M24.8889 17.3497V17.3505M24.8889 17.3505V17.3512M24.8889 17.3505V17.3512M24.8889 17.3512V17.352M24.8889 17.3512V17.352M24.8889 17.352V17.3527M24.8889 17.352V17.3527M24.8889 17.3527V17.3535M24.8889 17.3527V17.3535M24.8889 17.3535V17.3542M24.8889 17.3535V17.3542M24.8889 17.3542V17.355M24.8889 17.3542V17.355M24.8889 17.355V17.3557M24.8889 17.355V17.3557M24.8889 17.3557V17.3565M24.8889 17.3557V17.3565M24.8889 17.3565V17.3572M24.8889 17.3565V17.3572M24.8889 17.3572V17.358M24.8889 17.3572V17.358M24.8889 17.358V17.3587M24.8889 17.358V17.3587M24.8889 17.3587V17.3594M24.8889 17.3587V17.3594M24.8889 17.3594V17.3602M24.8889 17.3594V17.3602M24.8889 17.3602V17.3609M24.8889 17.3602V17.3609M24.8889 17.3609V17.3617M24.8889 17.3609V17.3617M24.8889 17.3617V17.3624M24.8889 17.3617V17.3624M24.8889 17.3624V17.3631M24.8889 17.3624V17.3631M24.8889 17.3631V17.3639M24.8889 17.3631V17.3639M24.8889 17.3639V17.3646M24.8889 17.3639V17.3646M24.8889 17.3646V17.3654M24.8889 17.3646V17.3654M24.8889 17.3654V17.3661M24.8889 17.3654V17.3661M24.8889 17.3661V17.3668M24.8889 17.3661V17.3668M24.8889 17.3668V17.3676M24.8889 17.3668V17.3676M24.8889 17.3676V17.3683M24.8889 17.3676V17.3683M24.8889 17.3683V17.369M24.8889 17.3683V17.369M24.8889 17.369V17.3698M24.8889 17.369V17.3698M24.8889 17.3698V17.3705M24.8889 17.3698V17.3705M24.8889 17.3705V17.3712M24.8889 17.3705V17.3712M24.8889 17.3712V17.372M24.8889 17.3712V17.372M24.8889 17.372V17.3727M24.8889 17.372V17.3727M24.8889 17.3727V17.3734M24.8889 17.3727V17.3734M24.8889 17.3734V17.3742M24.8889 17.3734V17.3742M24.8889 17.3742V17.3749M24.8889 17.3742V17.3749M24.8889 17.3749V17.3756M24.8889 17.3749V17.3756M24.8889 17.3756V17.3764M24.8889 17.3756V17.3764M24.8889 17.3764V17.3771M24.8889 17.3764V17.3771M24.8889 17.3771V17.3778M24.8889 17.3771V17.3778M24.8889 17.3778V17.3785M24.8889 17.3778V17.3785M24.8889 17.3785V17.3793M24.8889 17.3785V17.3793M24.8889 17.3793V17.38M24.8889 17.3793V17.38M24.8889 17.38V17.3807M24.8889 17.38V17.3807M24.8889 17.3807V17.3814M24.8889 17.3807V17.3814M24.8889 17.3814V17.3822M24.8889 17.3814V17.3822M24.8889 17.3822V17.3829M24.8889 17.3822V17.3829M24.8889 17.3829V17.3836M24.8889 17.3829V17.3836M24.8889 17.3836V17.3843M24.8889 17.3836V17.3843M24.8889 17.3843V17.3851M24.8889 17.3843V17.3851M24.8889 17.3851V17.3858M24.8889 17.3851V17.3858M24.8889 17.3858V17.3865M24.8889 17.3858V17.3865M24.8889 17.3865V17.3872M24.8889 17.3865V17.3872M24.8889 17.3872V17.3879M24.8889 17.3872V17.3879M24.8889 17.3879V17.3887M24.8889 17.3879V17.3887M24.8889 17.3887V17.3894M24.8889 17.3887V17.3894M24.8889 17.3894V17.3901M24.8889 17.3894V17.3901M24.8889 17.3901V17.3908M24.8889 17.3901V17.3908M24.8889 17.3908V17.3915M24.8889 17.3908V17.3915M24.8889 17.3915V17.3923M24.8889 17.3915V17.3923M24.8889 17.3923V17.393M24.8889 17.3923V17.393M24.8889 17.393V17.3937M24.8889 17.393V17.3937M24.8889 17.3937V17.3944M24.8889 17.3937V17.3944M24.8889 17.3944V17.3951M24.8889 17.3944V17.3951M24.8889 17.3951V17.3958M24.8889 17.3951V17.3958M24.8889 17.3958V17.3966M24.8889 17.3958V17.3966M24.8889 17.3966V17.3973M24.8889 17.3966V17.3973M24.8889 17.3973V17.398M24.8889 17.3973V17.398M24.8889 17.398V17.3987M24.8889 17.398V17.3987M24.8889 17.3987V17.3994M24.8889 17.3987V17.3994M24.8889 17.3994V17.4001M24.8889 17.3994V17.4001M24.8889 17.4001V17.4008M24.8889 17.4001V17.4008M24.8889 17.4008V17.4016M24.8889 17.4008V17.4016M24.8889 17.4016V17.4023M24.8889 17.4016V17.4023M24.8889 17.4023V17.403M24.8889 17.4023V17.403M24.8889 17.403V17.4037M24.8889 17.403V17.4037M24.8889 17.4037V17.4044M24.8889 17.4037V17.4044M24.8889 17.4044V17.4051M24.8889 17.4044V17.4051M24.8889 17.4051V17.4058M24.8889 17.4051V17.4058M24.8889 17.4058V17.4065M24.8889 17.4058V17.4065M24.8889 17.4065V17.4072M24.8889 17.4065V17.4072M24.8889 17.4072V17.4079M24.8889 17.4072V17.4079M24.8889 17.4079V17.4086M24.8889 17.4079V17.4086M24.8889 17.4086V17.4093M24.8889 17.4086V17.4093M24.8889 17.4093V17.4101M24.8889 17.4093V17.4101M24.8889 17.4101V17.4108M24.8889 17.4101V17.4108M24.8889 17.4108V17.4115M24.8889 17.4108V17.4115M24.8889 17.4115V17.4122M24.8889 17.4115V17.4122M24.8889 17.4122V17.4129M24.8889 17.4122V17.4129M24.8889 17.4129V17.4136M24.8889 17.4129V17.4136M24.8889 17.4136V17.4143M24.8889 17.4136V17.4143M24.8889 17.4143V17.415M24.8889 17.4143V17.415M24.8889 17.415V17.4157M24.8889 17.415V17.4157M24.8889 17.4157V17.4164M24.8889 17.4157V17.4164M24.8889 17.4164V17.4171M24.8889 17.4164V17.4171M24.8889 17.4171V17.4178M24.8889 17.4171V17.4178M24.8889 17.4178V17.4185M24.8889 17.4178V17.4185M24.8889 17.4185V17.4192M24.8889 17.4185V17.4192M24.8889 17.4192V17.4199M24.8889 17.4192V17.4199M24.8889 17.4199V17.4206M24.8889 17.4199V17.4206M24.8889 17.4206V17.4213M24.8889 17.4206V17.4213M24.8889 17.4213V17.422M24.8889 17.4213V17.422M24.8889 17.422V17.4227M24.8889 17.422V17.4227M24.8889 17.4227V17.4234M24.8889 17.4227V17.4234M24.8889 17.4234V17.4241M24.8889 17.4234V17.4241M24.8889 17.4241V17.4248M24.8889 17.4241V17.4248M24.8889 17.4248V17.4255M24.8889 17.4248V17.4255M24.8889 17.4255V17.4262M24.8889 17.4255V17.4262M24.8889 17.4262V17.4269M24.8889 17.4262V17.4269M24.8889 17.4269V17.4276M24.8889 17.4269V17.4276M24.8889 17.4276V17.4283M24.8889 17.4276V17.4283M24.8889 17.4283V17.429M24.8889 17.4283V17.429M24.8889 17.429V17.4297M24.8889 17.429V17.4297M24.8889 17.4297V17.4303M24.8889 17.4297V17.4303M24.8889 17.4303V17.431M24.8889 17.4303V17.431M24.8889 17.431V17.4317M24.8889 17.431V17.4317M24.8889 17.4317V17.4324M24.8889 17.4317V17.4324M24.8889 17.4324V17.4331M24.8889 17.4324V17.4331M24.8889 17.4331V17.4338M24.8889 17.4331V17.4338M24.8889 17.4338V17.4345M24.8889 17.4338V17.4345M24.8889 17.4345V17.4352M24.8889 17.4345V17.4352M24.8889 17.4352V17.4359M24.8889 17.4352V17.4359M24.8889 17.4359V17.4366M24.8889 17.4359V17.4366M24.8889 17.4366V17.4373M24.8889 17.4366V17.4373M24.8889 17.4373V17.438M24.8889 17.4373V17.438M24.8889 17.438V17.4387M24.8889 17.438V17.4387M24.8889 17.4387V17.4393M24.8889 17.4387V17.4393M24.8889 17.4393V17.44M24.8889 17.4393V17.44M24.8889 17.44V17.4407M24.8889 17.44V17.4407M24.8889 17.4407V17.4414M24.8889 17.4407V17.4414M24.8889 17.4414V17.4421M24.8889 17.4414V17.4421M24.8889 17.4421V17.4428M24.8889 17.4421V17.4428M24.8889 17.4428V17.4435M24.8889 17.4428V17.4435M24.8889 17.4435V17.4442M24.8889 17.4435V17.4442M24.8889 17.4442V17.4448M24.8889 17.4442V17.4448M24.8889 17.4448V17.4455M24.8889 17.4448V17.4455M24.8889 17.4455V17.4462M24.8889 17.4455V17.4462M24.8889 17.4462V17.4469M24.8889 17.4462V17.4469M24.8889 17.4469V17.4476M24.8889 17.4469V17.4476M24.8889 17.4476V17.4483M24.8889 17.4476V17.4483M24.8889 17.4483V17.449M24.8889 17.4483V17.449M24.8889 17.449V17.4496M24.8889 17.449V17.4496M24.8889 17.4496V17.4503M24.8889 17.4496V17.4503M24.8889 17.4503V17.451M24.8889 17.4503V17.451M24.8889 17.451V17.4517M24.8889 17.451V17.4517M24.8889 17.4517V17.4524M24.8889 17.4517V17.4524M24.8889 17.4524V17.4531M24.8889 17.4524V17.4531M24.8889 17.4531V17.4537M24.8889 17.4531V17.4537M24.8889 17.4537V17.4544M24.8889 17.4537V17.4544M24.8889 17.4544V17.4551M24.8889 17.4544V17.4551M24.8889 17.4551V17.4558M24.8889 17.4551V17.4558M24.8889 17.4558V17.4565M24.8889 17.4558V17.4565M24.8889 17.4565V17.4571M24.8889 17.4565V17.4571M24.8889 17.4571V17.4578M24.8889 17.4571V17.4578M24.8889 17.4578V17.4585M24.8889 17.4578V17.4585M24.8889 17.4585V17.4592M24.8889 17.4585V17.4592M24.8889 17.4592V17.4599M24.8889 17.4592V17.4599M24.8889 17.4599V17.4605M24.8889 17.4599V17.4605M24.8889 17.4605V17.4612M24.8889 17.4605V17.4612M24.8889 17.4612V17.4619M24.8889 17.4612V17.4619M24.8889 17.4619V17.4626M24.8889 17.4619V17.4626M24.8889 17.4626V17.4633M24.8889 17.4626V17.4633M24.8889 17.4633V17.4639M24.8889 17.4633V17.4639M24.8889 17.4639V17.4646M24.8889 17.4639V17.4646M24.8889 17.4646V17.4653M24.8889 17.4646V17.4653M24.8889 17.4653V17.466M24.8889 17.4653V17.466M24.8889 17.466V17.4666M24.8889 17.466V17.4666M24.8889 17.4666V17.4673M24.8889 17.4666V17.4673M24.8889 17.4673V17.468M24.8889 17.4673V17.468M24.8889 17.468V17.4687M24.8889 17.468V17.4687M24.8889 17.4687V17.4693M24.8889 17.4687V17.4693M24.8889 17.4693V17.47M24.8889 17.4693V17.47M24.8889 17.47V17.4707M24.8889 17.47V17.4707M24.8889 17.4707V17.4714M24.8889 17.4707V17.4714M24.8889 17.4714V17.472M24.8889 17.4714V17.472M24.8889 17.472V17.4727M24.8889 17.472V17.4727M24.8889 17.4727V17.4734M24.8889 17.4727V17.4734M24.8889 17.4734V17.4741M24.8889 17.4734V17.4741M24.8889 17.4741V17.4747M24.8889 17.4741V17.4747M24.8889 17.4747V17.4754M24.8889 17.4747V17.4754M24.8889 17.4754V17.4761M24.8889 17.4754V17.4761M24.8889 17.4761V17.4768M24.8889 17.4761V17.4768M24.8889 17.4768V17.4774M24.8889 17.4768V17.4774M24.8889 17.4774V17.4781M24.8889 17.4774V17.4781M24.8889 17.4781V17.4788M24.8889 17.4781V17.4788M24.8889 17.4788V17.4795M24.8889 17.4788V17.4795M24.8889 17.4795V17.4801M24.8889 17.4795V17.4801M24.8889 17.4801V17.4808M24.8889 17.4801V17.4808M24.8889 17.4808V17.4815M24.8889 17.4808V17.4815M24.8889 17.4815V17.4821M24.8889 17.4815V17.4821M24.8889 17.4821V17.4828M24.8889 17.4821V17.4828M24.8889 17.4828V17.4835M24.8889 17.4828V17.4835M24.8889 17.4835V17.4841M24.8889 17.4835V17.4841M24.8889 17.4841V17.4848M24.8889 17.4841V17.4848M24.8889 17.4848V17.4855M24.8889 17.4848V17.4855M24.8889 17.4855V17.4862M24.8889 17.4855V17.4862M24.8889 17.4862V17.4868M24.8889 17.4862V17.4868M24.8889 17.4868V17.4875M24.8889 17.4868V17.4875M24.8889 17.4875V17.4882M24.8889 17.4875V17.4882M24.8889 17.4882V17.4888M24.8889 17.4882V17.4888M24.8889 17.4888V17.4895M24.8889 17.4888V17.4895M24.8889 17.4895V17.4902M24.8889 17.4895V17.4902M24.8889 17.4902V17.4908M24.8889 17.4902V17.4908M24.8889 17.4908V17.4915M24.8889 17.4908V17.4915M24.8889 17.4915V17.4922M24.8889 17.4915V17.4922M24.8889 17.4922V17.4928M24.8889 17.4922V17.4928M24.8889 17.4928V17.4935M24.8889 17.4928V17.4935M24.8889 17.4935V17.4942M24.8889 17.4935V17.4942M24.8889 17.4942V17.4948M24.8889 17.4942V17.4948M24.8889 17.4948V17.4955M24.8889 17.4948V17.4955M24.8889 17.4955V17.4962M24.8889 17.4955V17.4962M24.8889 17.4962V17.4968M24.8889 17.4962V17.4968M24.8889 17.4968V17.4975M24.8889 17.4968V17.4975M24.8889 17.4975V17.4982M24.8889 17.4975V17.4982M24.8889 17.4982V17.4988M24.8889 17.4982V17.4988M24.8889 17.4988V17.4995M24.8889 17.4988V17.4995M24.8889 17.4995V17.5002M24.8889 17.4995V17.5002M24.8889 17.5002V17.5008M24.8889 17.5002V17.5008M24.8889 17.5008V17.5015M24.8889 17.5008V17.5015M24.8889 17.5015V17.5022M24.8889 17.5015V17.5022M24.8889 17.5022V17.5028M24.8889 17.5022V17.5028M24.8889 17.5028V17.5035M24.8889 17.5028V17.5035M24.8889 17.5035V17.5042M24.8889 17.5035V17.5042M24.8889 17.5042V17.5048M24.8889 17.5042V17.5048M24.8889 17.5048V17.5055M24.8889 17.5048V17.5055M24.8889 17.5055V17.5062M24.8889 17.5055V17.5062M24.8889 17.5062V17.5068M24.8889 17.5062V17.5068M24.8889 17.5068V17.5075M24.8889 17.5068V17.5075M24.8889 17.5075V17.5081M24.8889 17.5075V17.5081M24.8889 17.5081V17.5088M24.8889 17.5081V17.5088M24.8889 17.5088V17.5095M24.8889 17.5088V17.5095M24.8889 17.5095V17.5101M24.8889 17.5095V17.5101M24.8889 17.5101V17.5108M24.8889 17.5101V17.5108M24.8889 17.5108V17.5115M24.8889 17.5108V17.5115M24.8889 17.5115V17.5121M24.8889 17.5115V17.5121M24.8889 17.5121V17.5128M24.8889 17.5121V17.5128M24.8889 17.5128V17.5135M24.8889 17.5128V17.5135M24.8889 17.5135V17.5141M24.8889 17.5135V17.5141M24.8889 17.5141V17.5148M24.8889 17.5141V17.5148M24.8889 17.5148V17.5154M24.8889 17.5148V17.5154M24.8889 17.5154V17.5161M24.8889 17.5154V17.5161M24.8889 17.5161V17.5168M24.8889 17.5161V17.5168M24.8889 17.5168V17.5174M24.8889 17.5168V17.5174M24.8889 17.5174V17.5181M24.8889 17.5174V17.5181M24.8889 17.5181V17.5187M24.8889 17.5181V17.5187M24.8889 17.5187V17.5194M24.8889 17.5187V17.5194M24.8889 17.5194V17.5201M24.8889 17.5194V17.5201M24.8889 17.5201V17.5207M24.8889 17.5201V17.5207M24.8889 17.5207V17.5214M24.8889 17.5207V17.5214M24.8889 17.5214V17.5221M24.8889 17.5214V17.5221M24.8889 17.5221V17.5227M24.8889 17.5221V17.5227M24.8889 17.5227V17.5234M24.8889 17.5227V17.5234M24.8889 17.5234V17.524M24.8889 17.5234V17.524M24.8889 17.524V17.5247M24.8889 17.524V17.5247M24.8889 17.5247V17.5254M24.8889 17.5247V17.5254M24.8889 17.5254V17.526M24.8889 17.5254V17.526M24.8889 17.526V17.5267M24.8889 17.526V17.5267M24.8889 17.5267V17.5273M24.8889 17.5267V17.5273M24.8889 17.5273V17.528M24.8889 17.5273V17.528M24.8889 17.528V17.5287M24.8889 17.528V17.5287M24.8889 17.5287V17.5293M24.8889 17.5287V17.5293M24.8889 17.5293V17.53M24.8889 17.5293V17.53M24.8889 17.53V17.5306M24.8889 17.53V17.5306M24.8889 17.5306V17.5313M24.8889 17.5306V17.5313M24.8889 17.5313V17.532M24.8889 17.5313V17.532M24.8889 17.532V17.5326M24.8889 17.532V17.5326M24.8889 17.5326V17.5333M24.8889 17.5326V17.5333M24.8889 17.5333V17.5339M24.8889 17.5333V17.5339M24.8889 17.5339V17.5346M24.8889 17.5339V17.5346M24.8889 17.5346V17.5353M24.8889 17.5346V17.5353M24.8889 17.5353V17.5359M24.8889 17.5353V17.5359M24.8889 17.5359V17.5366M24.8889 17.5359V17.5366M24.8889 17.5366V17.5372M24.8889 17.5366V17.5372M24.8889 17.5372V17.5379M24.8889 17.5372V17.5379M24.8889 17.5379V17.5385M24.8889 17.5379V17.5385M24.8889 17.5385V17.5392M24.8889 17.5385V17.5392M24.8889 17.5392V17.5399M24.8889 17.5392V17.5399M24.8889 17.5399V17.5405M24.8889 17.5399V17.5405M24.8889 17.5405V17.5412M24.8889 17.5405V17.5412M24.8889 17.5412V17.5418M24.8889 17.5412V17.5418M24.8889 17.5418V17.5425M24.8889 17.5418V17.5425M24.8889 17.5425V17.5432M24.8889 17.5425V17.5432M24.8889 17.5432V17.5438M24.8889 17.5432V17.5438M24.8889 17.5438V17.5445M24.8889 17.5438V17.5445M24.8889 17.5445V17.5451M24.8889 17.5445V17.5451M24.8889 17.5451V17.5458M24.8889 17.5451V17.5458M24.8889 17.5458V17.5465M24.8889 17.5458V17.5465M24.8889 17.5465V17.5471M24.8889 17.5465V17.5471M24.8889 17.5471V17.5478M24.8889 17.5471V17.5478M24.8889 17.5478V17.5484M24.8889 17.5478V17.5484M24.8889 17.5484V17.5491M24.8889 17.5484V17.5491M24.8889 17.5491V17.5497M24.8889 17.5491V17.5497M24.8889 17.5497V17.5504M24.8889 17.5497V17.5504M24.8889 17.5504V17.5511M24.8889 17.5504V17.5511M24.8889 17.5511C24.8889 18.3696 24.889 19.1879 24.8892 20.0062M24.8889 17.5511L24.8892 20.0062M24.8892 20.0062C24.8895 21.9157 24.8899 23.8248 24.8883 25.7344L24.8892 20.0062ZM18.2868 25.6176C18.287 24.2218 18.2873 22.8253 18.2855 21.4297L18.2868 25.6176ZM1.58104 13.2334L1.58115 13.2333L0.87367 12.5266L1.58104 13.2334Z" stroke="black" stroke-width="2"/>
</svg>
