<svg width="29" height="29" viewBox="0 0 29 29" fill="none" xmlns="http://www.w3.org/2000/svg">
<path d="M14.5 29C6.49165 29 0 22.5084 0 14.5C0 6.49165 6.49165 0 14.5 0C22.5084 0 29 6.49165 29 14.5C29 22.5084 22.5084 29 14.5 29ZM21.025 7.975L11.6 11.6L7.975 21.025L17.4 17.4L21.025 7.975ZM14.5 15.95C14.1154 15.95 13.7466 15.7972 13.4747 15.5253C13.2028 15.2534 13.05 14.8846 13.05 14.5C13.05 14.1154 13.2028 13.7466 13.4747 13.4747C13.7466 13.2028 14.1154 13.05 14.5 13.05C14.8846 13.05 15.2534 13.2028 15.5253 13.4747C15.7972 13.7466 15.95 14.1154 15.95 14.5C15.95 14.8846 15.7972 15.2534 15.5253 15.5253C15.2534 15.7972 14.8846 15.95 14.5 15.95Z" fill="#E81224"/>
</svg>
