<svg width="31" height="31" viewBox="0 0 31 31" fill="none" xmlns="http://www.w3.org/2000/svg">
<path d="M15.5 30C7.49165 30 1 23.5084 1 15.5C1 7.49165 7.49165 1 15.5 1C23.5084 1 30 7.49165 30 15.5C30 23.5084 23.5084 30 15.5 30ZM15.5 27.1C18.5765 27.1 21.527 25.8779 23.7024 23.7024C25.8779 21.527 27.1 18.5765 27.1 15.5C27.1 12.4235 25.8779 9.47298 23.7024 7.29756C21.527 5.12214 18.5765 3.9 15.5 3.9C12.4235 3.9 9.47298 5.12214 7.29756 7.29756C5.12214 9.47298 3.9 12.4235 3.9 15.5C3.9 18.5765 5.12214 21.527 7.29756 23.7024C9.47298 25.8779 12.4235 27.1 15.5 27.1ZM22.025 8.975L18.4 18.4L8.975 22.025L12.6 12.6L22.025 8.975ZM15.5 16.95C15.8846 16.95 16.2534 16.7972 16.5253 16.5253C16.7972 16.2534 16.95 15.8846 16.95 15.5C16.95 15.1154 16.7972 14.7466 16.5253 14.4747C16.2534 14.2028 15.8846 14.05 15.5 14.05C15.1154 14.05 14.7466 14.2028 14.4747 14.4747C14.2028 14.7466 14.05 15.1154 14.05 15.5C14.05 15.8846 14.2028 16.2534 14.4747 16.5253C14.7466 16.7972 15.1154 16.95 15.5 16.95Z" fill="black" stroke="white" stroke-width="0.5"/>
</svg>
