<svg xmlns="http://www.w3.org/2000/svg" viewBox="0 0 30.34 29.11"><g id="Layer_2" data-name="Layer 2"><g id="Layer_1-2" data-name="Layer 1"><path d="M4.85,26.55c.11-.69.24-1.47.37-2.24.3-1.71.59-3.43.89-5.14a.73.73,0,0,0-.24-.72c-1.71-1.65-3.4-3.31-5.1-5a2.43,2.43,0,0,1-.46-3A2.37,2.37,0,0,1,2.13,9.27c2.36-.35,4.73-.7,7.1-1a.66.66,0,0,0,.56-.42Q11.37,4.61,13,1.41a2.41,2.41,0,0,1,3.58-1,2.84,2.84,0,0,1,.87,1c1.07,2.09,2.1,4.2,3.13,6.31a.71.71,0,0,0,.62.44c2.35.33,4.69.68,7,1a2.35,2.35,0,0,1,2,1.66,2.32,2.32,0,0,1-.62,2.53c-1.66,1.64-3.34,3.28-5,4.9a.92.92,0,0,0-.31.95c.41,2.28.79,4.56,1.18,6.84a2.46,2.46,0,0,1-3.61,2.63c-1.91-1-3.81-2-5.72-3-1.14-.59-.71-.58-1.83,0-1.93,1-3.84,2-5.77,3A2.46,2.46,0,0,1,4.89,27C4.87,26.9,4.87,26.77,4.85,26.55Zm2.12,0c0,.32.22.49.5.38a1.58,1.58,0,0,0,.26-.13c2-1.07,4.09-2.13,6.12-3.22a2.64,2.64,0,0,1,2.65,0q3.12,1.65,6.24,3.27a.56.56,0,0,0,.47,0,.59.59,0,0,0,.14-.46c-.39-2.29-.77-4.59-1.18-6.88A2.7,2.7,0,0,1,23,16.93c1.67-1.59,3.31-3.21,5-4.83.12-.12.26-.35.22-.49a.61.61,0,0,0-.45-.28c-2.16-.33-4.32-.68-6.49-.93a3.15,3.15,0,0,1-2.76-2c-.92-2-1.94-4-2.93-5.94-.07-.15-.26-.35-.4-.34s-.31.2-.39.35c-.22.38-.4.78-.59,1.17-.85,1.73-1.71,3.45-2.55,5.17a2.45,2.45,0,0,1-1.91,1.44l-2.92.43-4.25.63c-.15,0-.37.14-.4.25a.68.68,0,0,0,.18.47c.24.27.52.51.77.76L7.4,17a2.52,2.52,0,0,1,.8,2.38l-.81,4.72C7.25,24.94,7.1,25.77,7,26.57Z"/></g></g></svg>