<svg xmlns="http://www.w3.org/2000/svg" viewBox="0 0 24.17 29"><g id="Layer_2" data-name="Layer 2"><g id="Layer_1-2" data-name="Layer 1"><path d="M12.57,0c.38.08.75.14,1.13.23A7,7,0,0,1,18.81,5.9a6.8,6.8,0,0,1-1,4.82A6.85,6.85,0,0,1,12.35,14,7,7,0,0,1,10.46.14L11.27,0ZM17.2,7a5.29,5.29,0,1,0-5.28,5.29A5.27,5.27,0,0,0,17.2,7Z"/><path d="M12.1,29H5.19A5.4,5.4,0,0,1,2,28.08,4.26,4.26,0,0,1,.07,24.86a15.14,15.14,0,0,1,1-7,5.91,5.91,0,0,1,2.67-3.19A5.31,5.31,0,0,1,6.35,14a2.2,2.2,0,0,1,.87.3c.43.24.82.53,1.24.78a6.43,6.43,0,0,0,7.28,0c.33-.2.66-.4,1-.63a2.44,2.44,0,0,1,2-.39,5.35,5.35,0,0,1,4,2.9,12,12,0,0,1,1.34,4.72,24.66,24.66,0,0,1,.11,2.57,4.62,4.62,0,0,1-4.32,4.68,8.22,8.22,0,0,1-1,.06Zm0-1.7h0c2.4,0,4.8,0,7.19,0A3,3,0,0,0,22.48,24c0-.75,0-1.5-.12-2.24a10.51,10.51,0,0,0-1.08-3.87,3.66,3.66,0,0,0-3.14-2.14.69.69,0,0,0-.37.08l-1.26.81a8.21,8.21,0,0,1-9-.09c-.37-.24-.74-.49-1.12-.72a.43.43,0,0,0-.26-.09,3.47,3.47,0,0,0-2.4,1,5.79,5.79,0,0,0-1.2,1.93,14.58,14.58,0,0,0-.84,5.7,2.81,2.81,0,0,0,1.46,2.5,3.91,3.91,0,0,0,2,.46Z"/></g></g></svg>