<svg width="25" height="29" viewBox="0 0 25 29" fill="none" xmlns="http://www.w3.org/2000/svg">
<path d="M1.01935 24.4069L1.01925 24.4046C0.925538 22.2614 1.16419 20.2032 1.94908 18.2723L1.94936 18.2717C2.44867 17.0408 3.12099 16.1032 4.1815 15.5356C4.85497 15.1763 5.5723 15.0047 6.32355 15.022L6.32355 15.0221L6.32864 15.0221C6.32862 15.0224 6.36076 15.0257 6.43361 15.0535C6.51661 15.085 6.61344 15.1328 6.73174 15.1977L6.73174 15.1977L6.73433 15.1991C6.97733 15.3315 7.1643 15.4551 7.3814 15.5986C7.53897 15.7028 7.7124 15.8174 7.93466 15.9536C9.2774 16.7816 10.6691 17.2247 12.097 17.224C13.5255 17.2234 14.9169 16.7787 16.2584 15.9473L16.2587 15.9471C16.309 15.9159 16.3616 15.8836 16.4161 15.8502C16.6953 15.6788 17.0233 15.4774 17.327 15.2478C17.6139 15.0333 17.9463 14.9694 18.4851 15.0498L18.4867 15.05C20.0238 15.2766 21.0957 16.0894 21.858 17.4866C22.5701 18.7967 22.9091 20.2441 23.0591 21.8052C23.1369 22.6163 23.1736 23.4299 23.1655 24.242C23.1409 26.256 21.7962 27.7234 19.7729 27.9463L19.7616 27.9475L19.7503 27.949C19.6689 27.9599 19.5982 27.977 19.5459 27.9917C14.5545 27.9999 9.563 28 4.57053 28C4.47115 27.9801 4.38204 27.9632 4.2994 27.9476C4.09764 27.9094 3.93448 27.8785 3.75466 27.8282C2.09386 27.3616 1.09052 26.1285 1.01935 24.4069Z" fill="#E81224" stroke="#E81224" stroke-width="2"/>
<path d="M17.8932 6.98045L17.8932 6.98166C17.9151 10.2459 15.2141 12.9681 11.9204 12.9754L11.9193 12.9754C8.63352 12.9863 5.91797 10.265 5.91797 7.00909C5.91797 3.70452 8.55653 1.02606 11.8828 1.00013C15.1851 0.978495 17.8749 3.64159 17.8932 6.98045ZM18.8932 6.97496C18.9188 10.7972 15.7662 13.9668 11.9226 13.9754L11.8757 0.000156656C15.7364 -0.025439 18.8719 3.0887 18.8932 6.97496Z" fill="#E81224" stroke="#E81224" stroke-width="2"/>
</svg>
