<svg width="26" height="26" viewBox="0 0 26 26" fill="none" xmlns="http://www.w3.org/2000/svg">
<path d="M20.5182 18.7084L26 24.1889L24.1889 26L18.7084 20.5182C16.6692 22.1529 14.1327 23.042 11.5191 23.0383C5.16058 23.0383 0 17.8777 0 11.5191C0 5.16058 5.16058 0 11.5191 0C17.8777 0 23.0383 5.16058 23.0383 11.5191C23.042 14.1327 22.1529 16.6692 20.5182 18.7084ZM17.9507 17.7587C19.575 16.0883 20.4822 13.8491 20.4785 11.5191C20.4785 6.56848 16.4685 2.55981 11.5191 2.55981C6.56848 2.55981 2.55981 6.56848 2.55981 11.5191C2.55981 16.4685 6.56848 20.4785 11.5191 20.4785C13.8491 20.4822 16.0883 19.575 17.7587 17.9507L17.9507 17.7587Z" fill="#C4C4C4"/>
</svg>
