<svg width="35" height="34" viewBox="0 0 35 34" fill="none" xmlns="http://www.w3.org/2000/svg">
<path d="M0 16.6154C0 16.0017 0 15.388 0 14.7671C0.0730557 14.2484 0.1315 13.7297 0.226473 13.2256C1.00817 9.14908 3.17062 5.93463 6.50196 3.51648C10.4543 0.645393 14.9107 -0.399304 19.747 0.134003C23.5312 0.557726 26.8991 1.98231 29.7483 4.51004C32.7801 7.2058 34.6138 10.5444 34.9499 14.6356C35.2056 17.7843 34.4823 20.7138 32.802 23.3657C29.8579 27.9902 25.533 30.496 20.1853 31.2996C16.9197 31.789 13.7126 31.4092 10.615 30.2257C10.4689 30.1745 10.2643 30.2037 10.1182 30.2695C9.62144 30.4887 9.14658 30.759 8.64249 30.9781C6.13668 32.074 3.52129 32.7534 0.847446 33.2136C0.460251 33.2794 0.175334 33.1771 0 32.8191C0 32.7022 0 32.5927 0 32.4758C0.409112 31.8913 0.883974 31.3434 1.20542 30.7078C2.16975 28.823 2.4912 26.7628 2.73959 24.688C2.77612 24.352 2.69576 24.1036 2.51312 23.8406C1.42459 22.2407 0.679418 20.4946 0.299528 18.5952C0.175334 17.945 0.102278 17.2802 0 16.6154ZM9.34383 18.0692C10.6223 18.0619 11.667 17.0099 11.6597 15.7387C11.6524 14.4675 10.6004 13.4155 9.32922 13.4082C8.05074 13.4082 6.96952 14.4968 6.99874 15.7606C7.02796 17.0537 8.07266 18.0765 9.34383 18.0692ZM25.6206 18.0619C26.9064 18.0911 27.973 17.061 27.995 15.7606C28.0169 14.5041 26.9722 13.4301 25.6937 13.4082C24.4371 13.379 23.3851 14.4091 23.334 15.7022C23.2902 16.9514 24.3349 18.0327 25.6206 18.0619ZM17.4968 18.0692C18.7826 18.0692 19.8273 17.0318 19.8273 15.746C19.8273 14.4748 18.7753 13.4155 17.5042 13.4082C16.233 13.4082 15.1737 14.4675 15.1737 15.7387C15.1737 17.0245 16.2111 18.0619 17.4968 18.0692Z" fill="#E81224"/>
</svg>
