<svg width="25" height="24" viewBox="0 0 25 24" fill="none" xmlns="http://www.w3.org/2000/svg">
<path d="M0 11.5026C0 11.0778 0 10.6529 0 10.223C0.0505754 9.86394 0.0910358 9.50486 0.156784 9.15589C0.697941 6.33378 2.19497 4.10846 4.50121 2.43441C7.23734 0.446797 10.3224 -0.276432 13.6705 0.0927685C16.2903 0.386106 18.6219 1.37233 20.5943 3.12224C22.6932 4.98847 23.9626 7.29977 24.1953 10.132C24.3723 12.3118 23.8716 14.3399 22.7084 16.1758C20.6702 19.3772 17.6761 21.1119 13.974 21.6682C11.7133 22.0071 9.49301 21.7441 7.34861 20.9248C7.24746 20.8894 7.10585 20.9096 7.0047 20.9551C6.66079 21.1069 6.33205 21.294 5.98307 21.4457C4.24834 22.2043 2.43774 22.6747 0.586675 22.9933C0.318625 23.0388 0.121381 22.968 0 22.7202C0 22.6393 0 22.5634 0 22.4825C0.283222 22.0779 0.611963 21.6986 0.834495 21.2586C1.50209 19.9537 1.72462 18.5275 1.89658 17.0912C1.92187 16.8585 1.86623 16.6866 1.7398 16.5045C0.986221 15.3969 0.470352 14.1881 0.207359 12.8732C0.121381 12.4231 0.0708056 11.9628 0 11.5026ZM6.4686 12.509C7.35367 12.504 8.0769 11.7757 8.07184 10.8957C8.06678 10.0157 7.3385 9.28738 6.45848 9.28233C5.57341 9.28233 4.8249 10.0359 4.84513 10.9109C4.86536 11.806 5.58859 12.5141 6.4686 12.509ZM17.7368 12.504C18.6269 12.5242 19.3653 11.8111 19.3805 10.9109C19.3957 10.041 18.6725 9.2975 17.7874 9.28233C16.9175 9.2621 16.1892 9.97521 16.1538 10.8704C16.1234 11.7352 16.8467 12.4838 17.7368 12.504ZM12.1128 12.509C13.0029 12.509 13.7262 11.7909 13.7262 10.9007C13.7262 10.0207 12.9979 9.28738 12.1179 9.28233C11.2379 9.28233 10.5045 10.0157 10.5045 10.8957C10.5045 11.7858 11.2227 12.504 12.1128 12.509Z" fill="white"/>
</svg>
