<svg width="31" height="29" viewBox="0 0 31 29" fill="none" xmlns="http://www.w3.org/2000/svg">
<path d="M15.1731 23.1186L15.6896 23.431L23.0478 27.8814L23.0481 27.8815C23.6349 28.2367 24.3534 27.716 24.1982 27.0486L22.2479 18.6802L22.111 18.0926L22.567 17.6975L29.0741 12.0591L29.0745 12.0588C29.5959 11.6074 29.3092 10.7621 28.639 10.7088L28.6338 10.7084L28.6338 10.7084L20.0698 9.98145L19.469 9.93044L19.2337 9.37521L15.8826 1.46732L15.8812 1.46418C15.6215 0.845274 14.7227 0.845274 14.4629 1.46418L14.4613 1.46807L14.4613 1.46806L11.1102 9.35822L10.8747 9.91276L10.2743 9.96372L1.71041 10.6907L1.70513 10.6911L1.70512 10.6911C1.035 10.7444 0.74826 11.5897 1.26968 12.0411L1.27003 12.0414L7.7772 17.6797L8.23319 18.0748L8.09625 18.6625L6.14598 27.0309L15.1731 23.1186ZM15.1731 23.1186L14.6561 23.43M15.1731 23.1186L14.6561 23.43M14.6561 23.43L7.29783 27.8627L7.29604 27.8638M14.6561 23.43L7.29604 27.8638M7.29604 27.8638C6.7094 28.2189 5.99111 27.6985 6.14587 27.0314L7.29604 27.8638Z" stroke="black" stroke-width="2"/>
</svg>
