<svg width="48" height="48" viewBox="0 0 48 48" fill="none" xmlns="http://www.w3.org/2000/svg">
<rect opacity="0.449568" x="0.25" y="0.25" width="47.5" height="47.5" rx="23.75" fill="white" stroke="#8E8E93" stroke-width="0.5"/>
<path d="M36.4103 18.6328C36.3692 18.8275 36.3319 19.0222 36.2877 19.2163C36.0689 20.1713 35.5844 20.9833 34.8711 21.6727C30.9503 25.4614 27.0425 29.2628 23.1043 33.0342C21.1404 34.9154 18.7736 35.5073 16.0977 34.8282C13.5015 34.1701 11.4475 31.8833 11.0799 29.3097C10.7522 27.0151 11.4325 25.0335 13.114 23.3982C17.0044 19.6148 20.9153 15.8501 24.8181 12.0775C24.8529 12.0439 24.8903 12.0126 24.9046 12C25.3734 12.455 25.838 12.9045 26.323 13.3751C26.2969 13.4016 26.2335 13.4701 26.1669 13.5344C22.3101 17.2613 18.4558 20.9899 14.5972 24.7144C13.7564 25.5258 13.2005 26.4754 13.0618 27.6245C12.8404 29.4618 13.4604 30.9974 14.9753 32.1255C17.0442 33.6671 19.7935 33.4711 21.6609 31.6747C25.6023 27.8829 29.5293 24.0779 33.4595 20.2753C34.3171 19.4453 34.6 18.441 34.2574 17.3238C33.9234 16.2329 33.1374 15.5478 31.9813 15.3068C31.015 15.1048 30.1469 15.3428 29.3882 15.9528C29.2993 16.0244 29.2172 16.1037 29.1351 16.183C25.2373 19.949 21.3413 23.7161 17.4422 27.4808C17.1263 27.7862 16.9528 28.1233 17.0896 28.5579C17.2979 29.2184 18.1151 29.4636 18.6729 29.0339C18.763 28.9641 18.8445 28.8836 18.9266 28.8049C21.97 25.8647 25.0128 22.924 28.0537 19.9814C28.1227 19.9147 28.1662 19.8234 28.2129 19.7566C28.734 20.2603 29.2004 20.7111 29.6755 21.1696C29.6382 21.2081 29.5897 21.2616 29.5381 21.3115C26.4486 24.2979 23.3605 27.2849 20.2686 30.2689C19.1952 31.3051 17.6922 31.4956 16.4553 30.763C14.8696 29.8242 14.5418 27.6858 15.78 26.3467C15.8683 26.2512 15.9597 26.1592 16.0536 26.0685C19.9272 22.3242 23.8026 18.5823 27.6731 14.8356C28.4106 14.1216 29.2675 13.6299 30.2886 13.4034C32.9042 12.8222 35.6186 14.4431 36.2548 16.974C36.3132 17.206 36.3593 17.441 36.4109 17.6747C36.4103 17.9933 36.4103 18.313 36.4103 18.6328Z" fill="#64656C" stroke="#F8F8FA" stroke-width="0.3"/>
</svg>
