<svg width="22" height="21" viewBox="0 0 22 21" fill="none" xmlns="http://www.w3.org/2000/svg">
<path fill-rule="evenodd" clip-rule="evenodd" d="M8.67955 4.4567L6.87343 1.40414C6.06909 0.0446848 4.31498 -0.405316 2.95553 0.399035C2.71245 0.542861 2.49201 0.721901 2.30139 0.930326C0.944762 2.4137 0.337482 3.82605 0.53717 5.16529C0.946397 7.90983 2.87595 11.0447 6.30409 14.6037L6.60181 14.8978L6.89633 15.1959L6.90214 15.1916C10.4553 18.624 13.5902 20.5536 16.3347 20.9628C17.674 21.1625 19.0863 20.5552 20.5697 19.1986C20.7781 19.008 20.9571 18.7876 21.101 18.5445C21.9053 17.185 21.4553 15.4309 20.0959 14.6266L17.0433 12.8205L16.8915 12.7378C16.1728 12.3796 15.3176 12.4036 14.6167 12.8109L13.6655 13.3635L13.555 13.4209C13.0684 13.6443 12.488 13.5448 12.1032 13.1601L8.33993 9.39675L8.25623 9.30463C7.91561 8.8915 7.86311 8.30493 8.13646 7.83449L8.68913 6.88334C9.12549 6.13237 9.12182 5.20419 8.67955 4.4567ZM19.7598 18.3131C18.5048 19.4609 17.4288 19.9127 16.5117 19.7759C14.1546 19.4245 11.3397 17.7373 8.08615 14.6632L7.52591 14.1257L7.14745 13.75C3.88274 10.3601 2.0878 7.42787 1.72405 4.98832C1.5873 4.07117 2.03915 2.99517 3.1869 1.74018C3.29755 1.6192 3.42549 1.51528 3.56659 1.4318C4.31182 0.990867 5.26138 1.19935 5.75788 1.8886L5.84067 2.0152L7.64678 5.06776C7.8678 5.44131 7.86964 5.90517 7.65157 6.28046L7.0989 7.23162C6.57438 8.13431 6.66918 9.2661 7.33036 10.068L7.45178 10.2037L11.2547 14.0086C11.993 14.7468 13.1113 14.9451 14.0558 14.5114L14.218 14.4288L15.2195 13.8484C15.5686 13.6456 15.9961 13.6323 16.3562 13.8118L16.4697 13.8745L19.4848 15.6593C20.2739 16.1262 20.5351 17.1443 20.0682 17.9334C19.9847 18.0745 19.8808 18.2025 19.7598 18.3131Z" fill="#E81224"/>
</svg>
