<svg width="29" height="29" viewBox="0 0 29 29" fill="none" xmlns="http://www.w3.org/2000/svg">
<circle cx="14.5" cy="14.5" r="14" stroke="#6D6D6D"/>
<path d="M16.0477 7C16.4499 7.17685 16.571 7.49617 16.5694 7.93468C16.5581 10.833 16.5635 11.7307 16.5635 14.629C16.5635 14.716 16.5635 14.8031 16.5635 14.915C16.6566 14.915 16.7331 14.915 16.809 14.915C17.6042 14.915 18.3988 14.9189 19.194 14.9134C19.5224 14.9112 19.7916 15.0132 19.9348 15.333C20.0791 15.6551 19.9698 15.929 19.7544 16.1818C18.1969 18.0118 16.6426 19.8446 15.0857 21.6751C14.7163 22.1092 14.284 22.1092 13.9153 21.6757C12.3577 19.8446 10.8035 18.0112 9.24596 16.1818C9.03115 15.929 8.92079 15.6551 9.06561 15.3336C9.20882 15.0143 9.478 14.9117 9.80641 14.9139C10.6726 14.9195 11.5383 14.9156 12.4369 14.9156C12.4369 14.8214 12.4369 14.7365 12.4369 14.6517C12.4369 11.7462 12.4423 10.8407 12.431 7.93523C12.4288 7.49617 12.5505 7.17685 12.9526 7C13.9842 7 15.0157 7 16.0477 7Z" fill="#6D6D6D"/>
</svg>
