<svg width="30" height="30" viewBox="0 0 30 30" fill="none" xmlns="http://www.w3.org/2000/svg">
<path fill-rule="evenodd" clip-rule="evenodd" d="M15 3.75C8.78679 3.75 3.75 8.7868 3.75 15C3.75 21.2132 8.78679 26.25 15 26.25C21.2132 26.25 26.25 21.2132 26.25 15C26.25 8.7868 21.2132 3.75 15 3.75ZM1.25 15C1.25 7.40609 7.40609 1.25 15 1.25C22.5939 1.25 28.75 7.40609 28.75 15C28.75 22.5939 22.5939 28.75 15 28.75C7.40609 28.75 1.25 22.5939 1.25 15Z" fill="#64656C"/>
<path fill-rule="evenodd" clip-rule="evenodd" d="M10.625 14.375C11.6605 14.375 12.5 13.2557 12.5 11.875C12.5 10.4943 11.6605 9.375 10.625 9.375C9.58946 9.375 8.75 10.4943 8.75 11.875C8.75 13.2557 9.58946 14.375 10.625 14.375Z" fill="#64656C"/>
<path fill-rule="evenodd" clip-rule="evenodd" d="M19.375 14.375C20.4105 14.375 21.25 13.2557 21.25 11.875C21.25 10.4943 20.4105 9.375 19.375 9.375C18.3395 9.375 17.5 10.4943 17.5 11.875C17.5 13.2557 18.3395 14.375 19.375 14.375Z" fill="#64656C"/>
<path fill-rule="evenodd" clip-rule="evenodd" d="M10 17.7145C10 19.6671 12.2386 22.5 15 22.5C17.7614 22.5 20 19.6671 20 17.7145C20 15.7618 10 15.7618 10 17.7145Z" fill="#64656C"/>
</svg>
