<svg width="29" height="29" viewBox="0 0 29 29" fill="none" xmlns="http://www.w3.org/2000/svg">
<rect width="29" height="29" rx="6" fill="#07AD9F"/>
<path d="M13.2888 20.6753C14.2674 19.4718 14.9179 18.0355 15.1773 16.5062C15.1773 16.0494 15.627 14.7076 14.9435 14.6465C14.8481 14.6465 14.7566 14.6844 14.6892 14.7518C14.6217 14.8193 14.5838 14.9108 14.5838 15.0062C14.5843 16.4121 14.2265 17.795 13.5442 19.0242C12.8083 20.3432 11.7278 21.4373 10.4183 22.1898C10.336 22.2372 10.2758 22.3153 10.2509 22.4069C10.226 22.4986 10.2383 22.5964 10.2852 22.679C10.7528 23.4308 12.9219 21.1322 13.2888 20.6753Z" fill="#EFEFF4"/>
<path d="M14.8756 20.9739C16.1311 19.3228 18.4728 13.2364 14.7965 13.2112C12.613 13.4774 13.3828 15.6825 12.7893 17.1681C12.4899 18.0613 12.01 18.8834 11.3794 19.5833C10.7488 20.2832 9.98103 20.8459 9.12377 21.2365C9.07208 21.261 9.02698 21.2974 8.99219 21.3428C8.9574 21.3882 8.93393 21.4412 8.92374 21.4975C8.91354 21.5537 8.9169 21.6116 8.93355 21.6663C8.95019 21.721 8.97964 21.771 9.01945 21.8121C9.4727 22.1718 10.3792 21.3049 10.818 21.0638C11.7608 20.3603 12.5262 19.4462 13.0533 18.3945C13.5804 17.3428 13.8546 16.1826 13.8541 15.0062C13.8538 14.7273 13.9616 14.4592 14.1547 14.258C14.3479 14.0568 14.6114 13.9382 14.89 13.927C17.4081 13.9774 15.185 19.5099 14.2857 20.5602C13.6506 21.4741 12.8634 22.2723 11.9583 22.92C11.9197 22.9475 11.8869 22.9824 11.8618 23.0227C11.8368 23.0629 11.8199 23.1078 11.8122 23.1546C11.8045 23.2014 11.8062 23.2492 11.817 23.2954C11.8279 23.3416 11.8478 23.3851 11.8756 23.4236C12.4008 24.1358 14.5519 21.4523 14.8756 20.9739Z" fill="#EFEFF4"/>
<path d="M17.5832 18.794C17.9753 17.6271 18.1829 16.4062 18.1983 15.1753C18.3782 12.4234 15.04 10.7184 12.9069 12.4702C11.2306 13.6465 12.022 15.83 11.1083 17.4091C10.4755 18.6702 9.38009 19.638 8.0507 20.1106C7.96055 20.1426 7.88678 20.209 7.84563 20.2954C7.80448 20.3817 7.79931 20.4809 7.83127 20.571C7.86323 20.6612 7.9297 20.735 8.01605 20.7761C8.1024 20.8173 8.20156 20.8224 8.29171 20.7905C9.48769 20.366 10.5234 19.5825 11.2574 18.5473C11.9914 17.512 12.3878 16.2753 12.3925 15.0062C12.5256 11.5709 17.5257 11.7148 17.4681 15.1501C17.4491 16.6999 17.1073 18.2287 16.4644 19.639C15.8215 21.0493 14.8917 22.31 13.7342 23.3409C13.6795 23.3892 13.6407 23.453 13.6231 23.5238C13.6055 23.5947 13.6098 23.6693 13.6356 23.7376C13.6614 23.8059 13.7073 23.8648 13.7673 23.9064C13.8274 23.9479 13.8986 23.9703 13.9716 23.9704C15.7235 22.8337 16.8638 20.7329 17.5832 18.794Z" fill="#EFEFF4"/>
<path d="M19.6517 15.0062C19.4178 8.78306 10.4717 8.80105 10.2379 15.0062C10.2322 15.8873 9.93572 16.7418 9.39454 17.4372C8.85336 18.1325 8.09774 18.6297 7.24501 18.8515C7.15247 18.8754 7.07319 18.935 7.02462 19.0173C6.97605 19.0996 6.96216 19.1979 6.98601 19.2904C7.00986 19.3829 7.0695 19.4622 7.1518 19.5108C7.2341 19.5594 7.33233 19.5732 7.42487 19.5494C8.43224 19.2876 9.32481 18.7002 9.96368 17.8785C10.6026 17.0568 10.9519 16.047 10.9573 15.0062C10.9534 14.16 11.2248 13.3355 11.7307 12.6572C13.9322 9.58523 18.9826 11.2183 18.925 15.0062C18.9272 18.0832 17.8024 21.0545 15.7631 23.3588C15.705 23.431 15.6769 23.5228 15.6849 23.6152C15.6928 23.7075 15.736 23.7933 15.8056 23.8545C15.8752 23.9157 15.9657 23.9477 16.0583 23.9438C16.151 23.94 16.2385 23.9005 16.3027 23.8336C18.4602 21.3993 19.6516 18.259 19.6517 15.0062Z" fill="#EFEFF4"/>
<path d="M18.6656 10.1248C15.7447 7.78665 11.0109 8.89457 9.42811 12.2831C9.00527 13.1285 8.786 14.061 8.78781 15.0062C8.78366 15.6034 8.56944 16.1801 8.18271 16.6353C7.79598 17.0904 7.2614 17.3949 6.67267 17.4954C6.62517 17.5024 6.57954 17.5188 6.53848 17.5437C6.49742 17.5686 6.46176 17.6014 6.4336 17.6403C6.40544 17.6792 6.38535 17.7234 6.37451 17.7701C6.36368 17.8169 6.36232 17.8654 6.37051 17.9127C6.54317 18.6321 7.93528 17.8156 8.27701 17.553C8.65866 17.2496 8.96687 16.864 9.17865 16.4249C9.39042 15.9858 9.50029 15.5045 9.50005 15.017C10.0792 6.25065 24.3744 8.18233 19.3203 20.3444C18.9704 21.1981 18.5366 22.0151 18.0254 22.7833C17.999 22.8227 17.9807 22.8669 17.9715 22.9134C17.9623 22.9599 17.9624 23.0077 17.9718 23.0542C17.9811 23.1007 17.9996 23.1448 18.0261 23.1841C18.0525 23.2234 18.0865 23.2571 18.1261 23.2833C18.752 23.7437 19.7016 21.125 19.975 20.6501C21.3347 17.2724 22.0326 12.5709 18.6656 10.1248Z" fill="#EFEFF4"/>
<path d="M7.02185 10.6356C6.75566 11.1428 5.47867 13.7615 6.30242 13.9234C6.35025 13.9332 6.39958 13.9332 6.4474 13.9233C6.49523 13.9135 6.54055 13.894 6.5806 13.8661C6.62065 13.8381 6.65459 13.8023 6.68036 13.7609C6.70613 13.7194 6.72318 13.6731 6.73048 13.6248C9.2485 2.16063 25.8567 6.09594 22.8962 17.4954C22.8676 17.5865 22.8763 17.6852 22.9205 17.7699C22.9647 17.8546 23.0407 17.9182 23.1318 17.9468C23.2229 17.9754 23.3217 17.9667 23.4063 17.9225C23.491 17.8783 23.5546 17.8023 23.5832 17.7112C26.5905 7.28301 12.486 1.3081 7.02185 10.6356Z" fill="#EFEFF4"/>
<path d="M19.9186 9.2795C15.048 5.04922 7.32851 8.56006 7.32851 15.0062C7.32931 15.2786 7.22704 15.5413 7.04222 15.7415C6.85741 15.9416 6.60372 16.0645 6.33209 16.0854C6.23669 16.093 6.14822 16.1382 6.08616 16.2111C6.0241 16.2839 5.99352 16.3784 6.00115 16.4738C6.00878 16.5692 6.054 16.6577 6.12686 16.7198C6.19971 16.7818 6.29424 16.8124 6.38964 16.8048C6.84194 16.7694 7.26415 16.5644 7.57168 16.2309C7.87921 15.8973 8.04932 15.4599 8.04794 15.0062C9.07314 3.49525 26.7964 7.09242 20.5301 21.1933C20.4977 21.2796 20.4996 21.375 20.5355 21.4598C20.5713 21.5447 20.6384 21.6126 20.7228 21.6495C20.8072 21.6864 20.9025 21.6895 20.9892 21.6581C21.0758 21.6268 21.1471 21.5635 21.1884 21.4811C22.8611 17.6106 23.5374 12.2723 19.9186 9.2795Z" fill="#EFEFF4"/>
</svg>
