<svg width="39" height="39" viewBox="0 0 39 39" fill="none" xmlns="http://www.w3.org/2000/svg">
<path d="M18.5801 38.54C17.9053 38.4469 17.2265 38.3735 16.5555 38.2569C12.5014 37.5536 9.04768 35.7063 6.20322 32.7424C3.39402 29.8146 1.65346 26.3306 1.16567 22.3048C0.368357 15.7187 2.45077 10.1405 7.37372 5.68277C10.1633 3.15665 13.4799 1.66194 17.2108 1.17708C22.2993 0.516904 26.949 1.69818 31.0501 4.79535C34.8907 7.69662 37.265 11.5519 38.1936 16.2819C38.32 16.9274 38.3699 17.5876 38.4571 18.2409C38.4728 18.3604 38.5012 18.4789 38.5227 18.5974C38.5227 19.3791 38.5227 20.1617 38.5227 20.9433C38.5021 21.0374 38.4698 21.1314 38.462 21.2264C38.2151 24.445 37.2219 27.4159 35.4197 30.0909C32.4293 34.5299 28.2938 37.2647 23.0222 38.2491C22.3297 38.3784 21.6254 38.445 20.926 38.54C20.1444 38.54 19.3618 38.54 18.5801 38.54ZM2.86607 19.7562C2.85628 29.0879 10.4111 36.6525 19.7477 36.6574C29.0666 36.6633 36.6107 29.1339 36.6391 19.8012C36.6675 10.4745 29.1244 2.90688 19.7751 2.88239C10.4533 2.8579 2.87685 10.4186 2.86607 19.7562Z" fill="#E81224" stroke="#E81224" stroke-width="0.5"/>
<path d="M14.1162 19.7336C14.1162 17.5229 14.1143 15.3122 14.1172 13.1024C14.1182 12.3149 14.5394 11.786 15.2505 11.6635C15.6668 11.592 16.0086 11.7654 16.3426 11.9878C18.8188 13.6421 21.2979 15.2916 23.776 16.943C24.5988 17.4916 25.4226 18.0381 26.2424 18.5896C27.2092 19.2409 27.2111 20.3017 26.2424 20.9492C22.9239 23.1658 19.6014 25.3775 16.2829 27.5941C15.8078 27.9114 15.319 28.0074 14.8038 27.7214C14.3053 27.4442 14.1143 26.9946 14.1152 26.4383C14.1182 24.2031 14.1162 21.9688 14.1162 19.7336ZM24.6331 19.7699C21.7387 17.8403 18.902 15.9488 16.0262 14.032C16.0262 17.8785 16.0262 21.6642 16.0262 25.5087C18.905 23.5889 21.7416 21.6975 24.6331 19.7699Z" fill="#E81224" stroke="#E81224" stroke-width="0.5"/>
</svg>
