<svg width="43" height="38" viewBox="0 0 43 38" fill="none" xmlns="http://www.w3.org/2000/svg">
<path d="M0 33.996C0 26.5749 0 19.155 0 11.7339C0.0249491 11.6428 0.0611253 11.553 0.0735998 11.4595C0.319348 9.66312 1.76016 8.15246 3.53529 7.92417C4.20517 7.8381 4.89626 7.91045 5.58485 7.91045C5.62228 7.7383 5.65721 7.61979 5.67218 7.49879C5.82062 6.28127 5.9803 5.06625 6.10879 3.84624C6.37325 1.33886 8.41907 -0.275348 10.9202 0.0390104C12.759 0.269789 14.6015 0.47063 16.4427 0.678955C20.0004 1.08188 23.5594 1.47857 27.1184 1.8815C31.0092 2.32185 34.8975 2.77842 38.7896 3.20131C41.3182 3.47575 43.0846 5.47542 42.8264 7.87552C42.4808 11.0902 42.1041 14.2999 41.7411 17.5121C41.3257 21.1809 40.9028 24.8496 40.4974 28.5196C40.2816 30.4719 39.4483 31.9501 37.4448 32.5078C37.012 32.6275 36.9147 32.8134 36.9371 33.2225C36.9945 34.2692 36.6727 35.1973 35.9716 35.9882C34.9899 37.0946 33.7399 37.5425 32.2841 37.54C27.8357 37.5313 23.3873 37.5375 18.9401 37.5375C14.0176 37.5375 9.09519 37.5338 4.17274 37.54C2.73692 37.5412 1.53063 37.041 0.738493 35.8297C0.384216 35.2883 0.239511 34.611 0 33.996ZM2.08699 27.0239C2.31777 26.858 2.46372 26.7545 2.60843 26.6485C4.67172 25.149 6.73126 23.6433 8.7983 22.1489C10.8254 20.6844 13.0846 20.7991 14.957 22.447C16.7146 23.9951 18.4711 25.5457 20.2312 27.0926C21.3452 28.0718 22.4367 28.1803 23.7191 27.4344C27.3193 25.3399 30.9157 23.2379 34.5208 21.1497C34.784 20.9975 34.8788 20.8316 34.8776 20.5272C34.8651 17.9051 34.8701 15.2842 34.8701 12.662C34.8701 10.9255 33.917 9.9675 32.1868 9.9675C22.9132 9.9675 13.6397 9.9675 4.36609 9.9675C4.22638 9.9675 4.07294 9.93257 3.95069 9.97873C3.55774 10.1284 3.11614 10.237 2.80303 10.4939C2.2292 10.9642 2.0845 11.6528 2.08574 12.3801C2.09073 17.1079 2.08824 21.8345 2.08824 26.5624C2.08699 26.6859 2.08699 26.8081 2.08699 27.0239ZM34.8701 23.3976C34.6505 23.5198 34.5171 23.591 34.3861 23.667C31.2026 25.5083 28.0191 27.3483 24.8381 29.1933C24.1183 29.6112 23.3686 29.9268 22.5278 29.9767C21.1019 30.0615 19.8757 29.585 18.8141 28.6494C17.0365 27.0813 15.2626 25.5083 13.4775 23.949C12.391 22.9997 11.2421 22.9136 10.1231 23.7282C7.50843 25.6305 4.90873 27.5541 2.30904 29.4764C2.20425 29.5538 2.09822 29.7147 2.09697 29.8382C2.08325 31.1343 2.07202 32.4317 2.10071 33.7278C2.11818 34.5261 2.73193 35.2297 3.50784 35.3956C3.77729 35.453 4.06171 35.4567 4.33989 35.4567C13.6409 35.4592 22.9419 35.4592 32.243 35.458C32.3964 35.458 32.5498 35.453 32.702 35.4405C34.1054 35.3233 34.8713 34.4962 34.8713 33.0941C34.8726 30.0403 34.8713 26.9865 34.8713 23.9328C34.8701 23.7856 34.8701 23.6359 34.8701 23.3976ZM7.70178 7.883C7.91385 7.883 8.07976 7.883 8.24567 7.883C16.2643 7.883 24.283 7.8855 32.3028 7.87926C33.0563 7.87926 33.7761 8.00775 34.4397 8.35704C36.1138 9.23649 36.9396 10.6424 36.9421 12.5235C36.9484 18.3392 36.9446 24.1548 36.9446 29.9704C36.9446 30.1314 36.9446 30.2923 36.9446 30.5068C37.6981 30.2137 38.1709 29.7621 38.2594 29.0111C38.6312 25.8701 38.9879 22.7265 39.3535 19.5841C39.8138 15.626 40.2816 11.6678 40.7381 7.70836C40.8741 6.52702 40.1543 5.5353 38.9742 5.36814C37.2914 5.13112 35.5986 4.96147 33.9108 4.76437C30.1734 4.32776 26.4361 3.89115 22.6987 3.45828C18.6981 2.99548 14.6963 2.5439 10.6957 2.07735C9.36464 1.92267 8.36169 2.61001 8.16958 3.92109C7.97747 5.21595 7.85896 6.52078 7.70178 7.883Z" fill="#E81224"/>
<path d="M21.6992 21.9755C19.3066 21.9755 17.3281 20.0008 17.3281 17.6119C17.3281 15.2305 19.3153 13.2421 21.698 13.2408C24.0856 13.2396 26.064 15.2206 26.064 17.6107C26.0628 20.0158 24.1031 21.9755 21.6992 21.9755ZM19.4151 17.6219C19.4201 18.8768 20.4567 19.9072 21.7079 19.8985C22.9591 19.8898 23.9983 18.8444 23.9883 17.6032C23.9771 16.3483 22.9429 15.3253 21.6905 15.3303C20.4355 15.3353 19.4114 16.367 19.4151 17.6219Z" fill="#E81224"/>
</svg>
