<svg width="27" height="27" viewBox="0 0 27 27" fill="none" xmlns="http://www.w3.org/2000/svg">
<g filter="url(#filter0_i_102_4208)">
<circle cx="13.5" cy="13.5" r="11.5" fill="#F3CF49"/>
</g>
<circle cx="13.5" cy="13.5" r="12.5" stroke="#FCEDA5" stroke-width="2"/>
<path opacity="0.9" fill-rule="evenodd" clip-rule="evenodd" d="M11.0357 7.75C12.6786 7.75 13.5 8.94479 13.5 8.94479C13.5 8.94479 14.3214 7.75 15.9643 7.75C17.8809 7.75 19.25 9.39285 19.25 11.4838C19.25 13.8734 17.4599 16.0036 15.8274 17.6072C14.8195 18.5972 14.0476 19.25 13.5 19.25C12.9524 19.25 12.1586 18.5922 11.1726 17.6072C9.56782 16.0039 7.75 13.8734 7.75 11.4838C7.75 9.39285 9.11906 7.75 11.0357 7.75Z" fill="white" fill-opacity="0.9"/>
<defs>
<filter id="filter0_i_102_4208" x="0" y="0" width="27" height="27" filterUnits="userSpaceOnUse" color-interpolation-filters="sRGB">
<feFlood flood-opacity="0" result="BackgroundImageFix"/>
<feBlend mode="normal" in="SourceGraphic" in2="BackgroundImageFix" result="shape"/>
<feColorMatrix in="SourceAlpha" type="matrix" values="0 0 0 0 0 0 0 0 0 0 0 0 0 0 0 0 0 0 127 0" result="hardAlpha"/>
<feOffset dy="3.5"/>
<feComposite in2="hardAlpha" operator="arithmetic" k2="-1" k3="1"/>
<feColorMatrix type="matrix" values="0 0 0 0 0.945098 0 0 0 0 0.760784 0 0 0 0 0.286275 0 0 0 1 0"/>
<feBlend mode="normal" in2="shape" result="effect1_innerShadow_102_4208"/>
</filter>
</defs>
</svg>
