<svg width="22" height="21" viewBox="0 0 22 21" fill="none" xmlns="http://www.w3.org/2000/svg">
<path fill-rule="evenodd" clip-rule="evenodd" d="M20.6 6.5V18.8C20.6 19.9046 19.7046 20.8 18.6 20.8H3.1C1.99543 20.8 1.1 19.9046 1.1 18.8V6.5H20.6ZM14.3 8.7H7.3C7.05454 8.7 6.85039 8.87687 6.80806 9.11012L6.8 9.2V10.7C6.8 10.9455 6.97688 11.1496 7.21012 11.1919L7.3 11.2H14.3C14.5455 11.2 14.7496 11.0231 14.7919 10.7899L14.8 10.7V9.2C14.8 8.92386 14.5761 8.7 14.3 8.7ZM19.2 0.5C20.3046 0.5 21.2 1.39543 21.2 2.5V5.5H0.5V2.5C0.5 1.39543 1.39543 0.5 2.5 0.5H19.2Z" fill="white"/>
</svg>
