<svg width="29" height="29" viewBox="0 0 29 29" fill="none" xmlns="http://www.w3.org/2000/svg">
<rect width="29" height="29" rx="6" fill="#4BA0FE"/>
<path fill-rule="evenodd" clip-rule="evenodd" d="M16.35 8.625C16.35 9.52246 15.6225 10.25 14.725 10.25C13.8275 10.25 13.1 9.52246 13.1 8.625C13.1 7.72754 13.8275 7 14.725 7C15.6225 7 16.35 7.72754 16.35 8.625ZM16.25 20.3V11.75H12V12H12.05C12.7127 12 13.25 12.5373 13.25 13.2V20.3C13.25 20.9627 12.7127 21.5 12.05 21.5H12V21.75H17.5V21.5H17.45C16.7873 21.5 16.25 20.9627 16.25 20.3Z" fill="#EFEFF4"/>
</svg>
