<svg width="31" height="43" viewBox="0 0 31 43" fill="none" xmlns="http://www.w3.org/2000/svg">
<path d="M16.229 0C17.039 0.139112 17.858 0.235593 18.6557 0.422945C24.6812 1.83762 29.2697 6.92642 30.1066 13.0518C30.5048 15.9698 30 18.761 29.0352 21.4961C27.8168 24.947 26.0409 28.1185 24.0092 31.1386C21.5893 34.7342 19.0741 38.267 16.6015 41.8267C16.4658 42.0219 16.3379 42.2227 16.1976 42.4145C15.6255 43.1931 14.6394 43.1976 14.0795 42.4134C13.5433 41.6618 13.0295 40.8955 12.5056 40.1349C10.2035 36.7973 7.84868 33.4934 5.61504 30.111C3.68542 27.1896 2.06545 24.0933 0.981719 20.7434C-0.0975194 17.4036 -0.427349 14.0166 0.71247 10.6454C2.67799 4.82965 6.7414 1.35634 12.767 0.185108C13.1888 0.103212 13.6196 0.0617028 14.0459 0.00112187C14.774 0 15.5021 0 16.229 0ZM15.1285 39.4752C15.2014 39.3911 15.2407 39.3529 15.2721 39.3092C17.3936 36.2712 19.552 33.2556 21.6264 30.185C23.6177 27.2379 25.3947 24.1639 26.612 20.8028C27.4691 18.4368 27.9761 16.0124 27.6272 13.4804C26.6535 6.40588 20.205 1.59979 13.1551 2.68127C6.20514 3.74704 1.42822 10.5388 2.7453 17.4473C3.20526 19.8593 4.08369 22.1154 5.17975 24.2952C6.94446 27.8044 9.15342 31.0376 11.4106 34.2383C12.6357 35.975 13.8709 37.7038 15.1285 39.4752Z" fill="#E81224"/>
<path d="M15.1039 22.6726C10.9462 22.6591 7.56826 19.2498 7.5806 15.0798C7.59294 10.9221 11.0023 7.54419 15.1723 7.55766C19.3311 7.57 22.709 10.9794 22.6955 15.1493C22.6821 19.3081 19.2727 22.6861 15.1039 22.6726ZM10.0992 15.1146C10.0992 17.8856 12.3743 20.1574 15.1476 20.154C17.9018 20.1495 20.168 17.8878 20.1758 15.137C20.1837 12.3604 17.9198 10.0819 15.1487 10.0785C12.3743 10.0729 10.1003 12.3424 10.0992 15.1146Z" fill="#E81224"/>
</svg>
