<svg width="48" height="48" viewBox="0 0 48 48" fill="none" xmlns="http://www.w3.org/2000/svg">
<rect opacity="0.449568" x="0.25" y="0.25" width="47.5" height="47.5" rx="23.75" fill="white" stroke="#8E8E93" stroke-width="0.5"/>
<path fill-rule="evenodd" clip-rule="evenodd" d="M23.85 12C26.3353 12 28.35 14.0147 28.35 16.5V23.5C28.35 25.9853 26.3353 28 23.85 28C21.3647 28 19.35 25.9853 19.35 23.5V16.5C19.35 14.0147 21.3647 12 23.85 12ZM16.6 22.3284C16.8982 22.3284 17.1456 22.546 17.1921 22.831L17.2 22.9284V23.0603C17.2 26.8004 20.1795 29.8284 23.85 29.8284C27.4424 29.8284 30.3729 26.9278 30.496 23.2981L30.5 23.0603V22.9388C30.5 22.6074 30.7686 22.3388 31.1 22.3388C31.3982 22.3388 31.6456 22.5564 31.6921 22.8415L31.7 22.9388L31.6963 23.3084C31.5733 27.3891 28.4266 30.7005 24.4499 31.0055L24.45 34.5C24.45 34.8314 24.1814 35.1 23.85 35.1C23.5518 35.1 23.3044 34.8824 23.2579 34.5973L23.25 34.5L23.2505 31.0055C19.2761 30.7009 16.1307 27.3934 16.004 23.3161L16 22.9284C16 22.597 16.2686 22.3284 16.6 22.3284ZM20.55 16.5C20.55 14.6775 22.0275 13.2 23.85 13.2C25.6725 13.2 27.15 14.6775 27.15 16.5V23.5C27.15 25.3225 25.6725 26.8 23.85 26.8C22.0275 26.8 20.55 25.3225 20.55 23.5V16.5Z" fill="#64656C"/>
<path d="M17.1921 22.831L17.4413 22.8109L17.4405 22.8008L17.4389 22.7908L17.1921 22.831ZM17.2 22.9284H17.45V22.9183L17.4492 22.9083L17.2 22.9284ZM30.496 23.2981L30.7459 23.3065L30.7459 23.3023L30.496 23.2981ZM30.5 23.0603L30.75 23.0645V23.0603H30.5ZM31.6921 22.8415L31.9413 22.8213L31.9405 22.8112L31.9389 22.8012L31.6921 22.8415ZM31.7 22.9388L31.95 22.9413L31.9501 22.93L31.9492 22.9187L31.7 22.9388ZM31.6963 23.3084L31.9462 23.3159L31.9463 23.3109L31.6963 23.3084ZM24.4499 31.0055L24.4308 30.7562L24.1999 30.7739L24.1999 31.0055L24.4499 31.0055ZM24.45 34.5H24.7V34.5L24.45 34.5ZM23.2579 34.5973L23.0087 34.6174L23.0095 34.6276L23.0111 34.6376L23.2579 34.5973ZM23.25 34.5L23 34.5L23 34.5101L23.0008 34.5201L23.25 34.5ZM23.2505 31.0055L23.5005 31.0055L23.5005 30.7739L23.2696 30.7562L23.2505 31.0055ZM16.004 23.3161L15.7539 23.3187L15.7541 23.3239L16.004 23.3161ZM16 22.9284H15.75L15.75 22.9309L16 22.9284ZM28.6 16.5C28.6 13.8766 26.4734 11.75 23.85 11.75V12.25C26.1972 12.25 28.1 14.1528 28.1 16.5H28.6ZM28.6 23.5V16.5H28.1V23.5H28.6ZM23.85 28.25C26.4734 28.25 28.6 26.1234 28.6 23.5H28.1C28.1 25.8472 26.1972 27.75 23.85 27.75V28.25ZM19.1 23.5C19.1 26.1234 21.2266 28.25 23.85 28.25V27.75C21.5028 27.75 19.6 25.8472 19.6 23.5H19.1ZM19.1 16.5V23.5H19.6V16.5H19.1ZM23.85 11.75C21.2266 11.75 19.1 13.8766 19.1 16.5H19.6C19.6 14.1528 21.5028 12.25 23.85 12.25V11.75ZM17.4389 22.7908C17.373 22.3867 17.0227 22.0784 16.6 22.0784V22.5784C16.7737 22.5784 16.9183 22.7052 16.9454 22.8713L17.4389 22.7908ZM17.4492 22.9083L17.4413 22.8109L16.943 22.8512L16.9508 22.9485L17.4492 22.9083ZM17.45 23.0603V22.9284H16.95V23.0603H17.45ZM23.85 29.5784C20.3216 29.5784 17.45 26.6663 17.45 23.0603H16.95C16.95 26.9344 20.0374 30.0784 23.85 30.0784V29.5784ZM30.2461 23.2896C30.1275 26.789 27.3034 29.5784 23.85 29.5784V30.0784C27.5815 30.0784 30.6183 27.0667 30.7458 23.3065L30.2461 23.2896ZM30.25 23.0561L30.246 23.2938L30.7459 23.3023L30.75 23.0645L30.25 23.0561ZM30.25 22.9388V23.0603H30.75V22.9388H30.25ZM31.1 22.0888C30.6306 22.0888 30.25 22.4693 30.25 22.9388H30.75C30.75 22.7455 30.9067 22.5888 31.1 22.5888V22.0888ZM31.9389 22.8012C31.873 22.3971 31.5227 22.0888 31.1 22.0888V22.5888C31.2737 22.5888 31.4183 22.7156 31.4454 22.8817L31.9389 22.8012ZM31.9492 22.9187L31.9413 22.8213L31.443 22.8616L31.4508 22.9589L31.9492 22.9187ZM31.9463 23.3109L31.95 22.9413L31.45 22.9363L31.4463 23.3059L31.9463 23.3109ZM24.469 31.2547C28.5756 30.9399 31.8194 27.5218 31.9462 23.3159L31.4464 23.3009C31.3272 27.2563 28.2776 30.4612 24.4308 30.7562L24.469 31.2547ZM24.7 34.5L24.6999 31.0054L24.1999 31.0055L24.2 34.5L24.7 34.5ZM23.85 35.35C24.3194 35.35 24.7 34.9694 24.7 34.5H24.2C24.2 34.6933 24.0433 34.85 23.85 34.85V35.35ZM23.0111 34.6376C23.077 35.0416 23.4273 35.35 23.85 35.35V34.85C23.6763 34.85 23.5317 34.7232 23.5046 34.5571L23.0111 34.6376ZM23.0008 34.5201L23.0087 34.6174L23.507 34.5772L23.4992 34.4799L23.0008 34.5201ZM23.0005 31.0054L23 34.5L23.5 34.5L23.5005 31.0055L23.0005 31.0054ZM15.7541 23.3239C15.8847 27.5263 19.1272 30.9402 23.2314 31.2548L23.2696 30.7562C19.425 30.4616 16.3767 27.2605 16.2538 23.3084L15.7541 23.3239ZM15.75 22.9309L15.754 23.3187L16.254 23.3136L16.25 22.9258L15.75 22.9309ZM16.6 22.0784C16.1306 22.0784 15.75 22.4589 15.75 22.9284H16.25C16.25 22.7351 16.4067 22.5784 16.6 22.5784V22.0784ZM23.85 12.95C21.8894 12.95 20.3 14.5394 20.3 16.5H20.8C20.8 14.8155 22.1655 13.45 23.85 13.45V12.95ZM27.4 16.5C27.4 14.5394 25.8106 12.95 23.85 12.95V13.45C25.5345 13.45 26.9 14.8155 26.9 16.5H27.4ZM27.4 23.5V16.5H26.9V23.5H27.4ZM23.85 27.05C25.8106 27.05 27.4 25.4606 27.4 23.5H26.9C26.9 25.1845 25.5345 26.55 23.85 26.55V27.05ZM20.3 23.5C20.3 25.4606 21.8894 27.05 23.85 27.05V26.55C22.1655 26.55 20.8 25.1845 20.8 23.5H20.3ZM20.3 16.5V23.5H20.8V16.5H20.3Z" fill="#64656C"/>
</svg>
