<svg width="29" height="29" viewBox="0 0 29 29" fill="none" xmlns="http://www.w3.org/2000/svg">
<path fill-rule="evenodd" clip-rule="evenodd" d="M21.5 7.5C22.0523 7.5 22.5 7.94772 22.5 8.5V19H6.5V8.5C6.5 7.94772 6.94772 7.5 7.5 7.5H21.5ZM25.25 20V20.5C25.25 21.0523 24.8023 21.5 24.25 21.5H4.75C4.19772 21.5 3.75 21.0523 3.75 20.5V20H25.25ZM8 9H21V17.5H8V9Z" fill="#EFEFF4"/>
<rect width="29" height="29" rx="6" fill="#FF3B2F"/>
<path fill-rule="evenodd" clip-rule="evenodd" d="M24.75 8C24.75 5.92893 23.0711 4.25 21 4.25C18.9289 4.25 17.25 5.92893 17.25 8C17.25 10.0711 18.9289 11.75 21 11.75C23.0711 11.75 24.75 10.0711 24.75 8ZM16 6.75H10.25L10.0504 6.7549C7.93397 6.85892 6.25 8.6078 6.25 10.75V18.75L6.2549 18.9496C6.35892 21.066 8.1078 22.75 10.25 22.75H18.25L18.4496 22.7451C20.566 22.6411 22.25 20.8922 22.25 18.75V13H21.25V18.75L21.2449 18.9263C21.1537 20.5011 19.8477 21.75 18.25 21.75H10.25L10.0737 21.7449C8.49892 21.6537 7.25 20.3477 7.25 18.75V10.75L7.25509 10.5737C7.34634 8.99892 8.65232 7.75 10.25 7.75H16V6.75Z" fill="#EFEFF4"/>
</svg>
