<svg width="29" height="29" viewBox="0 0 29 29" fill="none" xmlns="http://www.w3.org/2000/svg">
<rect width="29" height="29" rx="6" fill="#397AFE"/>
<path fill-rule="evenodd" clip-rule="evenodd" d="M14.3496 5.5C17.111 5.5 19.3496 7.73858 19.3496 10.5C19.3496 12.4801 18.1986 14.1914 16.5291 15.0013L16.6406 15.0004V23.1355C16.6406 23.2415 16.6069 23.3442 16.5454 23.429L16.4942 23.489L15.3519 24.6313C14.9919 24.9913 14.4255 25.0195 14.0331 24.7154L13.9389 24.6324L12.7082 23.4057C12.5365 23.2303 12.5202 22.9606 12.6574 22.7673L12.716 22.6987L13.3255 22.1025C13.5009 21.9308 13.5231 21.6616 13.3905 21.4652L13.3334 21.3953L12.3634 20.4016C12.2031 20.2157 12.2037 19.9456 12.3527 19.7612L12.4155 19.6964L13.3023 18.9299C13.4759 18.7563 13.4952 18.4869 13.3602 18.292L13.3023 18.2228L12.5004 17.4209C12.4254 17.3459 12.3767 17.2495 12.3602 17.146L12.354 17.0674L12.354 15.0859C10.5858 14.3153 9.34961 12.552 9.34961 10.5C9.34961 7.73858 11.5882 5.5 14.3496 5.5ZM14.3746 7.5C13.6152 7.5 12.9996 8.11561 12.9996 8.875C12.9996 9.63439 13.6152 10.25 14.3746 10.25C15.134 10.25 15.7496 9.63439 15.7496 8.875C15.7496 8.11561 15.134 7.5 14.3746 7.5Z" fill="#EFEFF4"/>
</svg>
