<svg width="14" height="11" viewBox="0 0 14 11" fill="none" xmlns="http://www.w3.org/2000/svg">
<path fill-rule="evenodd" clip-rule="evenodd" d="M8.68934 0C8.88825 0 9.07902 0.0790176 9.21967 0.21967L10.5303 1.53033C10.671 1.67098 10.8617 1.75 11.0607 1.75H13.25C13.6642 1.75 14 2.08579 14 2.5V10C14 10.4142 13.6642 10.75 13.25 10.75H0.75C0.335786 10.75 0 10.4142 0 10V2.5C0 2.08579 0.335786 1.75 0.75 1.75H3.43934C3.63825 1.75 3.82902 1.67098 3.96967 1.53033L5.28033 0.21967C5.42098 0.0790176 5.61175 0 5.81066 0H8.68934ZM7 2.75C5.20507 2.75 3.75 4.20507 3.75 6C3.75 7.79493 5.20507 9.25 7 9.25C8.79493 9.25 10.25 7.79493 10.25 6C10.25 4.20507 8.79493 2.75 7 2.75ZM7 3.5C8.38071 3.5 9.5 4.61929 9.5 6C9.5 7.38071 8.38071 8.5 7 8.5C5.61929 8.5 4.5 7.38071 4.5 6C4.5 4.61929 5.61929 3.5 7 3.5ZM11.25 2.5C10.9739 2.5 10.75 2.72386 10.75 3C10.75 3.27614 10.9739 3.5 11.25 3.5C11.5261 3.5 11.75 3.27614 11.75 3C11.75 2.72386 11.5261 2.5 11.25 2.5ZM2.75 0.5C2.88807 0.5 3 0.611929 3 0.75V1.25C3 1.38807 2.88807 1.5 2.75 1.5H1.75C1.61193 1.5 1.5 1.38807 1.5 1.25V0.75C1.5 0.611929 1.61193 0.5 1.75 0.5H2.75Z" fill="#8E8E93"/>
</svg>
