<svg width="18" height="17" viewBox="0 0 18 17" fill="none" xmlns="http://www.w3.org/2000/svg">
<path d="M9.33348 13.6791L9.00066 13.4801L8.6675 13.6785L4.30263 16.2769L4.30147 16.2776C3.97924 16.4704 3.62618 16.1788 3.70068 15.8619C3.70069 15.8619 3.70069 15.8618 3.7007 15.8618L4.85758 10.9562L4.94847 10.5708L4.64771 10.3133L0.787689 7.00804L0.78746 7.00784C0.53007 6.78765 0.657129 6.359 1.01537 6.33084L1.01537 6.33085L1.01877 6.33057L6.09884 5.90442L6.48764 5.8718L6.64169 5.51335L8.62955 0.888087L8.63063 0.885545C8.76403 0.571485 9.23597 0.571485 9.36936 0.885547L9.37024 0.887599L11.3581 5.52326L11.512 5.88217L11.9012 5.91481L16.9812 6.34097L16.9846 6.34124C17.3429 6.3694 17.4699 6.79805 17.2125 7.01824L17.2123 7.01843L13.3523 10.3237L13.0515 10.5812L13.1424 10.9666L14.2993 15.8722C14.3739 16.1892 14.0208 16.4808 13.6985 16.288L13.6983 16.2879L9.33348 13.6791Z" stroke="#E81224" stroke-width="1.3"/>
</svg>
