<svg width="25" height="16" viewBox="0 0 25 16" fill="none" xmlns="http://www.w3.org/2000/svg">
<path fill-rule="evenodd" clip-rule="evenodd" d="M17 4C17 1.79086 15.2091 0 13 0H4C1.79086 0 0 1.79086 0 4V11.5C0 13.7091 1.79086 15.5 4 15.5H13C15.2091 15.5 17 13.7091 17 11.5V4ZM4 1.2H13C14.5464 1.2 15.8 2.4536 15.8 4V11.5C15.8 13.0464 14.5464 14.3 13 14.3H4C2.4536 14.3 1.2 13.0464 1.2 11.5V4C1.2 2.4536 2.4536 1.2 4 1.2ZM24.2926 1.92115C24.4271 2.09596 24.5 2.31032 24.5 2.53086V12.7104C24.5 13.2627 24.0523 13.7104 23.5 13.7104C23.3149 13.7104 23.1335 13.6591 22.9759 13.5621L18.9518 11.0857C18.3603 10.7217 18 10.0769 18 9.38241V6.4848C18 5.86386 18.2884 5.27815 18.7806 4.89956L22.8903 1.73824C23.328 1.4015 23.9559 1.4834 24.2926 1.92115ZM19.5122 5.8507L23.3 2.93704V12.3525L19.5807 10.0637C19.3441 9.91814 19.2 9.66022 19.2 9.38241V6.4848C19.2 6.23643 19.3154 6.00214 19.5122 5.8507Z" fill="#E81224"/>
</svg>
