<svg width="33" height="33" viewBox="0 0 33 33" fill="none" xmlns="http://www.w3.org/2000/svg">
<path d="M0 2.05823C0 1.07394 0.799286 0.274658 1.78358 0.274658H30.5471C31.5314 0.274658 32.3307 1.07394 32.3307 2.05823V30.8217C32.3302 31.2946 32.1421 31.748 31.8077 32.0824C31.4734 32.4168 31.02 32.6048 30.5471 32.6053H1.78358C1.31069 32.6048 0.857304 32.4168 0.522922 32.0824C0.18854 31.748 0.000475503 31.2946 0 30.8217V2.05823ZM13.6902 10.0008C13.5821 9.92868 13.4565 9.88722 13.3267 9.88085C13.1969 9.87449 13.0678 9.90344 12.9532 9.96463C12.8385 10.0258 12.7426 10.117 12.6757 10.2283C12.6088 10.3397 12.5733 10.4672 12.573 10.5971V22.2829C12.5733 22.4128 12.6088 22.5403 12.6757 22.6516C12.7426 22.763 12.8385 22.8542 12.9532 22.9154C13.0678 22.9765 13.1969 23.0055 13.3267 22.9991C13.4565 22.9928 13.5821 22.9513 13.6902 22.8792L22.4536 17.0381C22.5522 16.9725 22.633 16.8836 22.6889 16.7793C22.7448 16.6749 22.7741 16.5584 22.7741 16.44C22.7741 16.3216 22.7448 16.2051 22.6889 16.1007C22.633 15.9964 22.5522 15.9075 22.4536 15.8419L13.6884 10.0008H13.6902Z" fill="#E81224"/>
</svg>
