<svg width="29" height="29" viewBox="0 0 29 29" fill="none" xmlns="http://www.w3.org/2000/svg">
<rect width="29" height="29" rx="6" fill="#FF3B2F"/>
<path d="M23 13.5297C23 13.842 23 14.1548 23 14.4672C22.9871 14.5799 22.9742 14.6923 22.9617 14.805C22.7848 16.3912 22.21 17.8142 21.1937 19.0465C19.9349 20.5731 18.3298 21.5228 16.3791 21.8751C16.0786 21.9295 15.7734 21.9589 15.4705 22C15.1583 22 14.8456 22 14.5334 22C14.4829 21.9906 14.4324 21.9793 14.3815 21.9718C14.0419 21.9241 13.6972 21.8994 13.3634 21.8262C11.2836 21.3698 9.61938 20.2705 8.41613 18.5156C7.12757 16.6363 6.72061 14.5584 7.18704 12.3271C7.55996 10.5436 8.4623 9.05884 9.85534 7.88995C11.5782 6.4443 13.5774 5.82776 15.8141 6.0415C17.3977 6.1926 18.815 6.788 20.0441 7.80109C21.5721 9.0608 22.523 10.6673 22.8752 12.6207C22.9296 12.9217 22.9589 13.2267 23 13.5297ZM15.478 17.3115C16.2692 17.3115 17.0491 17.3131 17.8289 17.3064C17.8657 17.306 17.9256 17.2379 17.9346 17.1933C18.0316 16.6934 18.1349 16.1939 18.2069 15.6897C18.2637 15.2904 18.2793 14.8857 18.3138 14.4746C17.3547 14.4746 16.4202 14.4746 15.478 14.4746C15.478 15.4181 15.478 16.3536 15.478 17.3115ZM14.5216 17.3072C14.5216 16.3532 14.5216 15.4141 14.5216 14.4774C13.5755 14.4774 12.6402 14.4774 11.7011 14.4774C11.7348 15.4411 11.8541 16.3814 12.0959 17.3072C12.9087 17.3072 13.7097 17.3072 14.5216 17.3072ZM18.302 13.5234C18.2703 12.6 18.1572 11.7039 17.9444 10.82C17.9181 10.7108 17.8774 10.6818 17.7694 10.6826C17.051 10.6877 16.3326 10.685 15.6142 10.6857C15.5692 10.6857 15.5245 10.6912 15.4831 10.694C15.4831 11.6452 15.4831 12.5843 15.4831 13.523C16.4257 13.5234 17.3566 13.5234 18.302 13.5234ZM14.5224 13.523C14.5224 12.5714 14.5224 11.6327 14.5224 10.6857C13.7324 10.6857 12.9529 10.6842 12.1734 10.6908C12.137 10.6912 12.0776 10.7601 12.0689 10.8047C11.9723 11.3042 11.869 11.803 11.797 12.3064C11.7402 12.7057 11.7242 13.1104 11.6894 13.523C12.6453 13.523 13.579 13.523 14.5224 13.523ZM18.9242 17.3131C19.6512 17.3131 20.4049 17.3147 21.1585 17.3088C21.2024 17.3084 21.2626 17.2524 21.2865 17.207C21.5354 16.731 21.7326 16.2331 21.8464 15.7077C21.9337 15.3045 21.9955 14.8958 22.071 14.4754C21.1002 14.4754 20.1767 14.4754 19.2865 14.4754C19.1656 15.4247 19.0459 16.3615 18.9242 17.3131ZM7.97239 14.4754C7.97004 14.5024 7.96574 14.522 7.9673 14.5416C8.03304 15.4936 8.29521 16.39 8.73347 17.2356C8.75539 17.2775 8.83952 17.3084 8.89469 17.3088C9.59669 17.3135 10.2991 17.3123 11.0011 17.3115C11.0398 17.3115 11.0789 17.3053 11.0789 17.3053C10.958 16.3599 10.8379 15.4235 10.7166 14.4758C9.82482 14.4754 8.90095 14.4754 7.97239 14.4754ZM19.2869 13.5218C20.1791 13.5218 21.1026 13.5218 22.0311 13.5218C22.0335 13.4948 22.0374 13.4749 22.0362 13.4553C21.9705 12.5033 21.7079 11.6068 21.27 10.7613C21.2481 10.7194 21.164 10.6889 21.1084 10.6885C20.4064 10.6838 19.7041 10.685 19.0021 10.6857C18.9633 10.6857 18.9246 10.6924 18.9246 10.6924C19.0459 11.6381 19.1656 12.5745 19.2869 13.5218ZM11.0797 10.6857C10.3507 10.6857 9.5916 10.6842 8.83287 10.69C8.79374 10.6904 8.7413 10.746 8.719 10.7887C8.45252 11.2976 8.25061 11.8323 8.13048 12.3933C8.05143 12.7616 8.00252 13.1366 7.93756 13.5226C8.90095 13.5226 9.82443 13.5226 10.7166 13.5226C10.8379 12.5753 10.9576 11.6389 11.0797 10.6857ZM12.382 9.73802C13.1157 9.73802 13.8204 9.73802 14.5224 9.73802C14.5224 8.82945 14.5224 7.93301 14.5224 7.00252C13.3293 7.5623 12.8527 8.63685 12.382 9.73802ZM15.4795 18.2561C15.4795 19.1659 15.4795 20.0627 15.4795 20.9967C16.6671 20.4334 17.1543 19.3659 17.6243 18.2561C16.8945 18.2561 16.1937 18.2561 15.4795 18.2561ZM12.409 18.2549C12.4074 18.2706 12.4023 18.2823 12.4055 18.291C12.7248 19.142 13.136 19.9362 13.82 20.5587C14.0235 20.7434 14.254 20.8871 14.5228 20.9732C14.5228 20.0556 14.5228 19.1572 14.5228 18.2549C13.811 18.2549 13.1098 18.2549 12.409 18.2549ZM15.4811 7.0217C15.4811 7.9428 15.4811 8.8408 15.4811 9.74154C16.1929 9.74154 16.8941 9.74154 17.5949 9.74154C17.5965 9.7251 17.6008 9.71375 17.5977 9.70514C17.5652 9.61745 17.5343 9.52898 17.4983 9.44286C17.1954 8.72336 16.8272 8.04575 16.2516 7.50124C16.0301 7.29181 15.7816 7.12935 15.4811 7.0217ZM17.431 20.6131C18.7223 20.1414 19.7784 19.36 20.6162 18.2718C20.5931 18.2596 20.5845 18.2514 20.5763 18.2514C19.9517 18.2502 19.3268 18.2479 18.7023 18.2538C18.6593 18.2542 18.5928 18.3078 18.5775 18.3512C18.2922 19.1541 17.942 19.9225 17.431 20.6131ZM9.36934 18.2495C10.2286 19.3624 11.2848 20.1445 12.5941 20.6362C12.4509 20.4201 12.319 20.2349 12.2008 20.0415C11.8799 19.5154 11.6412 18.9509 11.4335 18.372C11.4159 18.3227 11.3509 18.2553 11.3075 18.2549C10.6736 18.2471 10.0393 18.2495 9.36934 18.2495ZM17.4298 7.38615C17.4321 7.39515 17.4318 7.40572 17.4368 7.41238C17.9428 8.08451 18.293 8.8365 18.5646 9.62724C18.5971 9.72197 18.6436 9.75094 18.743 9.75015C19.3311 9.74507 19.9197 9.74781 20.5078 9.74702C20.5407 9.74702 20.5739 9.74076 20.6142 9.73685C19.8477 8.65995 18.4898 7.7091 17.4298 7.38615ZM12.571 7.38497C11.2824 7.85668 10.2259 8.63881 9.37208 9.74937C10.0389 9.74937 10.6685 9.74741 11.2981 9.75172C11.3881 9.7525 11.4119 9.70514 11.435 9.6382C11.7125 8.83806 12.0627 8.07511 12.571 7.38497Z" fill="#EFEFF4"/>
</svg>
