<svg width="30" height="30" viewBox="0 0 30 30" fill="none" xmlns="http://www.w3.org/2000/svg">
<path d="M15.8789 30C15.2736 30 14.6678 30 14.0625 30C13.7057 29.9555 13.3488 29.9168 12.9932 29.8658C11.1422 29.601 9.39141 29.035 7.74844 28.1344C7.62422 28.0664 7.43027 28.0553 7.29199 28.0957C6.57305 28.3084 5.86113 28.5445 5.14805 28.7766C3.9 29.1832 2.65312 29.5922 1.40625 30C1.2498 30 1.09395 30 0.9375 30C0.47168 29.8406 0.157617 29.5301 0 29.0625C0 28.9061 0 28.7502 0 28.5938C0.0134766 28.5803 0.0333984 28.5691 0.0386719 28.5533C0.656836 26.6244 1.26973 24.6937 1.89551 22.7666C1.96406 22.5551 1.95645 22.3893 1.84863 22.1941C1.03008 20.7141 0.479297 19.1396 0.215625 17.4674C0.135352 16.9588 0.0714844 16.4473 0 15.9375C0 15.3322 0 14.7264 0 14.1211C0.0169922 14.0367 0.0439453 13.9535 0.0498047 13.8686C0.196289 11.7762 0.748242 9.79277 1.76016 7.95937C4.09219 3.73242 7.63769 1.14668 12.3867 0.236719C12.9586 0.126562 13.5428 0.0773438 14.1211 0C14.707 0 15.293 0 15.8789 0C15.9545 0.0164062 16.0289 0.0427734 16.1051 0.0480469C18.208 0.19043 20.2008 0.744141 22.043 1.76133C26.2693 4.09453 28.8545 7.64004 29.7633 12.3896C29.8728 12.9609 29.9221 13.5439 29.9994 14.1211C29.9994 14.707 29.9994 15.293 29.9994 15.8789C29.9824 15.9633 29.9555 16.0465 29.9496 16.1314C29.8031 18.2238 29.2512 20.2072 28.2393 22.0406C25.9066 26.2676 22.3617 28.8533 17.6127 29.7633C17.0414 29.8734 16.4572 29.9227 15.8789 30ZM2.99121 27.0088C4.26152 26.601 5.48437 26.2588 6.66738 25.8117C7.47539 25.5064 8.12344 25.6225 8.86758 26.0432C11.5898 27.5812 14.5178 28.0195 17.5787 27.3826C20.7621 26.7199 23.3191 25.0406 25.227 22.415C27.4166 19.4016 28.1191 16.0359 27.3732 12.3955C26.7293 9.25254 25.0605 6.73242 22.4889 4.8252C19.7027 2.75977 16.5627 1.98867 13.1461 2.48965C9.70078 2.99473 6.92285 4.69395 4.84687 7.48711C2.60273 10.507 1.9043 13.8926 2.61445 17.5723C2.88867 18.992 3.42305 20.3203 4.18008 21.5531C4.44609 21.9861 4.4959 22.4168 4.3207 22.8914C4.18242 23.2658 4.06934 23.6496 3.94687 24.0305C3.63457 25.0025 3.32285 25.9752 2.99121 27.0088Z" fill="#757272"/>
<path d="M9.14846 16.4623C8.34514 16.467 7.67365 15.7967 7.67775 14.9934C7.68127 14.2012 8.33986 13.542 9.13205 13.5373C9.93537 13.5327 10.6069 14.203 10.6028 15.0063C10.5992 15.7985 9.94064 16.4577 9.14846 16.4623Z" fill="#757272"/>
<path d="M16.4627 14.9984C16.4633 15.8023 15.79 16.4703 14.9867 16.4626C14.1939 16.455 13.5383 15.7941 13.5371 15.0013C13.5365 14.1974 14.2098 13.5294 15.0131 13.5371C15.8059 13.5447 16.4621 14.2062 16.4627 14.9984Z" fill="#757272"/>
<path d="M22.3221 14.9907C22.3274 15.794 21.6576 16.4661 20.8537 16.4626C20.0616 16.4597 19.4018 15.8017 19.3965 15.0089C19.3912 14.2056 20.061 13.5335 20.8649 13.537C21.6571 13.5405 22.3168 14.1985 22.3221 14.9907Z" fill="#757272"/>
</svg>
