<svg width="38" height="38" viewBox="0 0 38 38" fill="none" xmlns="http://www.w3.org/2000/svg">
<path d="M19.8685 37.54C19.1358 37.54 18.4021 37.54 17.6694 37.54C17.1744 37.4812 16.6777 37.4307 16.1837 37.361C12.4832 36.8385 9.21069 35.3601 6.41011 32.8864C3.11094 29.9729 1.04769 26.3478 0.288322 22.0009C0.16528 21.2957 0.0945769 20.5813 0 19.8716C0 19.1388 0 18.4052 0 17.6724C0.0220373 17.5549 0.0560116 17.4392 0.0642756 17.3207C0.177217 15.6294 0.531651 13.9867 1.10829 12.3963C4.39002 3.35457 13.9239 -1.74065 23.2724 0.543889C32.9164 2.90097 39.0979 12.5497 37.2073 22.292C36.4819 26.0273 34.7887 29.2586 32.1139 31.959C29.3097 34.7899 25.9398 36.5731 22.0034 37.2517C21.2963 37.3729 20.5801 37.4454 19.8685 37.54ZM31.2838 29.5551C36.5012 23.7749 37.2495 13.4422 30.0387 6.63722C23.1695 0.15548 12.0186 0.877204 5.99967 8.2285C-0.0486664 15.6156 1.95949 24.9916 6.26044 29.5267C7.47617 25.2358 10.1785 22.2801 14.3133 20.6034C9.96547 17.4787 10.0656 11.8812 12.8882 8.79504C15.8164 5.5932 20.7518 5.26631 23.9316 8.09535C25.6542 9.62695 26.6055 11.5451 26.6505 13.8489C26.7056 16.6697 25.5027 18.9019 23.2219 20.5951C27.3786 22.281 30.0498 25.2514 31.2838 29.5551ZM19.0706 35.3418C19.4663 35.3087 20.1743 35.2747 20.8767 35.1884C23.6966 34.8386 26.2511 33.8083 28.5384 32.1262C29.4648 31.4448 29.452 31.4274 29.1756 30.2805C27.8442 24.7455 22.569 21.2526 16.9623 22.1937C12.4125 22.9577 8.79566 26.6949 8.19055 31.2713C8.17585 31.3815 8.25574 31.5495 8.34573 31.6221C11.385 34.0664 14.8624 35.2904 19.0706 35.3418ZM18.7657 19.7559C21.895 19.7595 24.4468 17.2216 24.4716 14.0822C24.4963 10.9602 21.9079 8.36347 18.7703 8.36256C15.6337 8.36072 13.0461 10.9529 13.0645 14.0776C13.0828 17.2124 15.6337 19.7522 18.7657 19.7559Z" fill="#E81224"/>
</svg>
