<svg width="45" height="39" viewBox="0 0 45 39" fill="none" xmlns="http://www.w3.org/2000/svg">
<path d="M22.6519 38.5427C17.2684 38.5427 11.885 38.5439 6.50157 38.5427C3.27344 38.5427 1.00121 36.2645 1 33.0303C1 26.1136 1 19.1956 1 12.2789C1 9.05436 3.27946 6.78334 6.51483 6.78213C8.36395 6.78093 10.2143 6.77369 12.0634 6.78936C12.3696 6.79178 12.5142 6.71101 12.6046 6.40845C12.8011 5.74667 13.0253 5.09212 13.264 4.44481C14.0295 2.37871 15.9437 1.0226 18.1484 1.01175C21.1559 0.996082 24.1635 0.996082 27.171 1.01175C29.3758 1.02381 31.2779 2.3763 32.0494 4.45204C32.2796 5.07043 32.493 5.69725 32.6774 6.3313C32.7763 6.67123 32.9221 6.7978 33.2994 6.79298C35.1642 6.76887 37.029 6.77972 38.8938 6.78213C42.005 6.78695 44.3074 9.0845 44.3098 12.1969C44.3134 19.1739 44.3134 26.1521 44.3098 33.1292C44.3086 36.2392 42.0026 38.5403 38.8926 38.5427C33.479 38.5451 28.0655 38.5427 22.6519 38.5427ZM22.6314 35.6557C28.0136 35.6557 33.3959 35.6557 38.7781 35.6557C40.4452 35.6557 41.4228 34.6878 41.4228 33.0363C41.424 26.1208 41.424 19.2053 41.4228 12.2897C41.4228 10.6359 40.4464 9.67033 38.7793 9.67033C36.5095 9.66913 34.2384 9.67154 31.9686 9.66913C31.1152 9.66792 30.6619 9.34608 30.3859 8.53844C30.0556 7.57289 29.7422 6.60132 29.4131 5.63577C29.0274 4.50146 28.1956 3.89875 27.0071 3.89755C24.1056 3.89393 21.2042 3.89393 18.3027 3.89755C17.1117 3.89875 16.28 4.50026 15.8955 5.63457C15.5724 6.58685 15.2638 7.54396 14.9408 8.49625C14.6503 9.35331 14.2055 9.66913 13.2966 9.67033C11.0412 9.67154 8.78585 9.67034 6.5317 9.67154C4.84652 9.67034 3.8882 10.6347 3.8882 12.3319C3.8882 19.2173 3.8882 26.1027 3.8882 32.9893C3.8882 34.7059 4.84652 35.6569 6.5751 35.6569C11.9272 35.6557 17.2793 35.6557 22.6314 35.6557Z" fill="#E81224" stroke="white" stroke-width="0.5"/>
<path d="M11.8281 21.9465C11.8245 15.9808 16.6788 11.1121 22.6263 11.1133C28.6402 11.1157 33.4921 15.9712 33.4836 21.9814C33.4752 27.9314 28.6041 32.776 22.6384 32.7688C16.6751 32.7603 11.8317 27.9109 11.8281 21.9465ZM30.5954 21.9513C30.5882 17.5744 27.0382 14.0003 22.7011 14.0015C18.2518 14.0039 14.7091 17.5503 14.7163 21.9959C14.7236 26.3354 18.3001 29.8782 22.677 29.8806C27.0201 29.883 30.6027 26.2968 30.5954 21.9513Z" fill="#E81224" stroke="white" stroke-width="0.5"/>
<path d="M37.0834 12.5584C37.8682 12.5536 38.5239 13.1973 38.5348 13.9808C38.5456 14.7836 37.8814 15.4502 37.0786 15.443C36.2963 15.4357 35.649 14.78 35.6514 13.9965C35.6526 13.2081 36.2951 12.562 37.0834 12.5584Z" fill="#E81224"/>
</svg>
