<svg width="16" height="16" viewBox="0 0 16 16" fill="none" xmlns="http://www.w3.org/2000/svg">
<path d="M16 7.46048C16 7.76987 16 8.07965 16 8.38905C15.9911 8.43364 15.9767 8.47784 15.9736 8.52242C15.8965 9.62856 15.61 10.6797 15.0676 11.6443C13.6078 14.24 11.3816 15.6536 8.40705 15.8366C6.98337 15.9242 5.62095 15.6191 4.37213 14.9235C1.7636 13.4716 0.348449 11.2399 0.163123 8.25917C0.0743367 6.82967 0.389159 5.46648 1.08006 4.20951C2.30911 1.97396 4.18486 0.607667 6.69413 0.125353C6.99655 0.0671963 7.30517 0.0412196 7.61068 0.00012207C7.92008 0.00012207 8.22986 0.00012207 8.53926 0.00012207C8.57919 0.00865174 8.61874 0.0229971 8.65867 0.0253234C9.62562 0.0892959 10.5534 0.319209 11.4223 0.745305C13.8618 1.9414 15.3525 3.8753 15.8748 6.54587C15.9341 6.84751 15.9593 7.15574 16 7.46048ZM8.07245 0.990727C4.24806 0.993053 1.14559 4.09475 1.14093 7.91992C1.13667 11.7478 4.24922 14.8615 8.07788 14.8592C11.9027 14.8569 15.0051 11.7556 15.0094 7.93C15.0137 4.10212 11.9011 0.988788 8.07245 0.990727Z" fill="#A6A4A4"/>
<path d="M3.61035 7.93201C3.95735 7.93201 4.27528 7.93201 4.59281 7.93201C4.63469 10.1714 6.56162 11.4745 8.22257 11.3908C9.94906 11.3036 11.4991 9.93338 11.5472 7.93705C11.8682 7.93705 12.1896 7.93705 12.5347 7.93705C12.4859 9.4689 11.8752 10.7189 10.6055 11.5812C9.12207 12.5884 7.52857 12.6799 5.95252 11.8305C4.43153 11.0108 3.68944 9.66702 3.61035 7.93201Z" fill="#A6A4A4"/>
<path d="M4.61038 5.45455C4.60612 4.91214 5.05858 4.45774 5.60176 4.45929C6.13991 4.46084 6.585 4.904 6.58926 5.44292C6.59353 5.98533 6.14107 6.43973 5.59788 6.43818C5.05974 6.43663 4.61465 5.99308 4.61038 5.45455Z" fill="#A6A4A4"/>
<path d="M10.5506 6.43768C10.0067 6.4373 9.55576 5.98212 9.56158 5.4401C9.56739 4.90079 10.0137 4.45841 10.5514 4.4588C11.0954 4.45919 11.5463 4.91436 11.5405 5.45638C11.5346 5.99608 11.0884 6.43807 10.5506 6.43768Z" fill="#A6A4A4"/>
</svg>
