<svg width="29" height="29" viewBox="0 0 29 29" fill="none" xmlns="http://www.w3.org/2000/svg">
<rect width="29" height="29" rx="6" fill="#FF2C55"/>
<path fill-rule="evenodd" clip-rule="evenodd" d="M21.0497 15.218C22.3508 13.1446 22.056 11.1273 20.4201 9.75464C18.7278 8.33463 16.2048 8.55537 14.7848 10.2477L14.4919 10.5957L14.1992 10.2477C12.7792 8.55537 10.2562 8.33463 8.56387 9.75464C6.87157 11.1746 6.89455 13.015 8.07084 15.39C8.85504 16.9733 10.9956 19.1825 14.4925 22.0175C17.9965 18.8668 20.1823 16.6003 21.0497 15.218ZM14.4544 20.4329L13.8286 19.9044C11.2979 17.7392 9.72907 16.0343 9.14618 14.8574C8.12973 12.8051 8.20405 11.6231 9.33522 10.6739C10.5198 9.67989 12.2859 9.8344 13.2799 11.019L14.4917 12.4598L15.703 11.0202C16.698 9.8344 18.4642 9.67989 19.6488 10.6739C20.8376 11.6714 21.0056 13.0308 20.0332 14.5802C19.3569 15.658 17.6932 17.4368 15.0754 19.8618L14.4544 20.4329Z" fill="#EFEFF4"/>
</svg>
