<svg width="21" height="20" viewBox="0 0 21 20" fill="none" xmlns="http://www.w3.org/2000/svg">
<path d="M10.981 15.8937L10.4645 15.5813L9.94749 15.8928L4.87284 18.9498L4.87105 18.9509C4.70257 19.0529 4.49597 18.9066 4.54081 18.7126C4.54083 18.7125 4.54086 18.7124 4.54088 18.7123L5.88586 12.9411L6.02281 12.3535L5.56681 11.9584L1.07911 8.06985L1.07876 8.06955C1.03102 8.02821 1.01371 7.99079 1.00602 7.9602C0.996996 7.92433 0.997296 7.87913 1.01267 7.83201C1.02805 7.78486 1.05428 7.74879 1.08183 7.72593C1.10514 7.70658 1.13965 7.68739 1.20056 7.68255L1.20056 7.68256L1.20584 7.68211L7.112 7.18076L7.71232 7.1298L7.94784 6.57527L10.2589 1.13378L10.259 1.13378L10.2606 1.12989C10.2832 1.07612 10.3111 1.04989 10.3373 1.03353C10.3683 1.01417 10.4121 1 10.4635 1C10.5149 1 10.5588 1.01417 10.5897 1.03353C10.6159 1.04989 10.6439 1.07612 10.6664 1.1299L10.6677 1.13303L12.9789 6.58675L13.2141 7.14199L13.815 7.19299L19.7212 7.69436L19.7265 7.69478C19.7874 7.69962 19.8219 7.71881 19.8452 7.73816C19.8727 7.76102 19.899 7.79709 19.9143 7.84424C19.9297 7.89135 19.93 7.93655 19.921 7.97243C19.9133 8.00302 19.896 8.04044 19.8482 8.08178L19.8479 8.08208L15.3602 11.9706L14.9042 12.3657L15.0411 12.9533L16.3861 18.7245C16.4313 18.9186 16.2245 19.0652 16.056 18.9631L16.0557 18.963L10.981 15.8937Z" stroke="#808080" stroke-width="2"/>
</svg>
