<svg width="28" height="32" viewBox="0 0 28 32" fill="none" xmlns="http://www.w3.org/2000/svg">
<g clip-path="url(#clip0_322_498)">
<path d="M19.4695 27.4248C18.6942 30.6605 16.0286 32.1219 13.7139 31.9913C11.4345 31.8626 9.17643 30.262 8.5395 27.4248C8.42715 27.4248 8.30366 27.4248 8.18018 27.4248C6.24617 27.4248 4.31123 27.42 2.37721 27.4267C1.40882 27.4296 0.658608 27.0377 0.234295 26.133C-0.180733 25.2474 -0.0247491 24.4208 0.547191 23.6305C1.23055 22.6867 1.86841 21.7076 2.51463 20.7361C2.78296 20.3329 2.87859 19.8724 2.87766 19.3833C2.87302 16.7435 2.82195 14.1018 2.88695 11.4629C3.00765 6.59897 5.22113 3.04108 9.52368 1.00664C15.815 -1.9678 23.331 1.93711 24.8221 8.89462C25.0097 9.76979 25.0896 10.6831 25.1025 11.5802C25.1388 14.1485 25.122 16.7178 25.1109 19.2861C25.1081 19.9058 25.265 20.4511 25.6141 20.9535C26.2734 21.9011 26.9251 22.8545 27.5704 23.8126C28.0746 24.5619 28.1377 25.3675 27.7403 26.175C27.3411 26.9853 26.6633 27.4124 25.7785 27.4191C23.798 27.4343 21.8176 27.4238 19.8372 27.4248C19.7128 27.4248 19.5865 27.4248 19.4695 27.4248ZM25.733 25.1225C25.0636 24.131 24.4257 23.1729 23.773 22.2253C23.1713 21.352 22.8844 20.3891 22.8891 19.3185C22.8993 16.7502 22.9002 14.1819 22.8863 11.6136C22.8835 11.0339 22.8399 10.4486 22.7517 9.87561C21.981 4.86864 17.0388 1.40991 12.219 2.49195C7.96941 3.44625 5.10786 7.08327 5.10136 11.5449C5.09764 14.0303 5.07443 16.5157 5.11157 19.0001C5.13107 20.3167 4.79218 21.4721 4.02526 22.5246C3.41803 23.3578 2.86281 24.2311 2.26023 25.1225C10.0956 25.1225 17.8827 25.1225 25.733 25.1225ZM17.0907 27.4429C15.0267 27.4429 12.9665 27.4429 10.9015 27.4429C11.2516 28.7376 12.6211 29.7214 14.0342 29.7081C15.4148 29.6947 16.7667 28.6985 17.0907 27.4429Z" fill="#757272"/>
</g>
<defs>
<clipPath id="clip0_322_498">
<rect width="28" height="32" fill="white"/>
</clipPath>
</defs>
</svg>
