<svg width="98" height="50" viewBox="0 0 98 50" fill="none" xmlns="http://www.w3.org/2000/svg">
<rect width="98" height="50" rx="6" fill="#CCECFF"/>
<path d="M55.4009 20.0267C55.4009 20.1336 55.4009 20.2406 55.2939 20.3475C54.4383 24.6256 51.6576 26.016 48.0212 26.016H46.203C45.7752 26.016 45.3474 26.3369 45.3474 26.7647L44.3848 32.754L44.1709 34.4652C44.1709 34.7861 44.3848 35 44.5987 35H47.9142C48.342 35 48.6629 34.6791 48.6629 34.3583V34.1444L49.3046 30.2941V30.0802C49.4116 29.6524 49.7324 29.4385 50.0533 29.4385H50.588C53.7966 29.4385 56.2565 28.1551 56.8982 24.4117C57.2191 22.8074 57.0052 21.524 56.2565 20.6684C56.0426 20.4545 55.7218 20.2406 55.4009 20.0267Z" fill="#2199D6"/>
<path d="M54.5455 19.7058C54.4386 19.7058 54.3317 19.5989 54.1177 19.5989C54.0108 19.5989 53.7969 19.4919 53.6899 19.4919C53.1552 19.3849 52.6204 19.3849 52.0856 19.3849H47.1658C47.0589 19.3849 46.9519 19.3849 46.845 19.4919C46.6311 19.5989 46.4172 19.8128 46.4172 20.0267L45.3477 26.6577V26.8716C45.4546 26.4438 45.7755 26.123 46.2033 26.123H48.0215C51.6578 26.123 54.4386 24.6256 55.2942 20.4545C55.2942 20.3475 55.2942 20.2406 55.4012 20.1336C55.1873 20.0267 54.9734 19.9197 54.7595 19.8128C54.6525 19.7058 54.5455 19.7058 54.5455 19.7058Z" fill="#252C5E"/>
<path d="M46.4171 20.0268C46.4171 19.8129 46.631 19.5989 46.8449 19.492C46.9519 19.492 47.0589 19.385 47.1658 19.385H52.0856C52.6204 19.385 53.2621 19.385 53.6899 19.492C53.7968 19.492 54.0108 19.492 54.1177 19.5989C54.2247 19.5989 54.3316 19.7059 54.5455 19.7059C54.6525 19.7059 54.6525 19.7059 54.7594 19.8129C54.9733 19.9198 55.1872 20.0268 55.4011 20.1337C55.615 18.5294 55.4011 17.4599 54.5455 16.4973C53.5829 15.4278 51.8717 15 49.7327 15H43.4225C42.9947 15 42.5668 15.3209 42.5668 15.7487L40 32.2193C40 32.5402 40.2139 32.861 40.5348 32.861H44.385L45.3476 26.6578L46.4171 20.0268Z" fill="#263577"/>
</svg>
