<svg width="9" height="15" viewBox="0 0 9 15" fill="none" xmlns="http://www.w3.org/2000/svg">
<path fill-rule="evenodd" clip-rule="evenodd" d="M1.01408 5.2V6.94296C1.01408 8.86818 2.57478 10.4289 4.5 10.4289C6.28999 10.4289 7.77539 9.07584 7.96489 7.3362L7.98019 7.14837L7.98592 6.94296V5.2H9L8.99982 6.95663L8.99335 7.18942C8.87374 9.40135 7.16278 11.1757 5.00052 11.4154L5 13.3H7.3V14.3H1.7V13.3H4L4.0003 11.4155C1.81916 11.1746 0.107772 9.37473 0.00489799 7.15479L0 6.94296V5.2H1.01408ZM4.5 0C5.88071 0 7 1.11929 7 2.5V7C7 8.38071 5.88071 9.5 4.5 9.5C3.11929 9.5 2 8.38071 2 7V2.5C2 1.11929 3.11929 0 4.5 0Z" fill="#60BB58"/>
</svg>
