<svg width="29" height="29" viewBox="0 0 29 29" fill="none" xmlns="http://www.w3.org/2000/svg">
<rect width="29" height="29" rx="6" fill="#4BA0FE"/>
<path d="M15.5467 5C15.9198 5.0689 16.3034 5.1025 16.6648 5.21239C19.1483 5.96688 20.6711 7.65408 21.1658 10.274C21.2829 10.8929 21.2415 11.5438 21.2719 12.1804C21.2758 12.2607 21.2724 12.3416 21.2724 12.4173C22.3862 12.6536 22.9898 13.42 22.997 14.601C23.0025 15.4677 22.9992 16.3349 22.9975 17.2016C22.9959 18.1411 22.5294 18.6997 21.6234 18.8341C21.5151 18.8501 21.4515 18.8916 21.3968 18.9839C20.9911 19.67 20.4737 20.2429 19.7895 20.6449C19.1654 21.0116 18.4944 21.2046 17.7775 21.2325C17.7432 21.2337 17.7095 21.2354 17.6752 21.2388C17.6647 21.2399 17.6548 21.2473 17.6443 21.2519C17.3232 22.4141 16.3725 23.1253 15.3305 22.9823C14.2218 22.8303 13.3965 21.8959 13.3993 20.7958C13.4021 19.6837 14.1991 18.7624 15.3095 18.6166C16.2674 18.4913 17.3513 19.1091 17.636 20.3385C18.4292 20.5179 19.9099 19.76 20.4113 18.8939C20.267 18.8939 20.1415 18.895 20.0161 18.8939C19.6894 18.8911 19.5391 18.735 19.5391 18.3974C19.5385 16.6168 19.5385 14.8362 19.5407 13.0556C19.5407 12.9514 19.5523 12.8438 19.5816 12.7447C19.6435 12.5352 19.7745 12.4446 19.9868 12.4423C20.1167 12.4412 20.246 12.4423 20.3654 12.4423C20.3825 12.4167 20.3936 12.4082 20.3941 12.3985C20.4726 10.9647 20.356 9.57132 19.5297 8.34706C18.3783 6.64107 16.7892 5.79036 14.7712 5.91449C12.2214 6.07165 10.2012 8.02648 9.86677 10.6242C9.79104 11.213 9.81647 11.8154 9.79436 12.4423C9.95078 12.4423 10.0785 12.4418 10.2061 12.4423C10.472 12.4435 10.6279 12.5813 10.6655 12.8546C10.6765 12.9355 10.6749 13.018 10.6749 13.1C10.6754 14.863 10.6754 16.6259 10.6754 18.3888C10.6754 18.7447 10.5356 18.8928 10.1918 18.8933C9.65728 18.8933 9.12224 18.9076 8.58885 18.8831C7.73985 18.8444 7.03511 18.1218 7.01521 17.2449C6.99255 16.2205 6.99697 15.1949 7.01687 14.1705C7.03345 13.3101 7.73929 12.3979 8.76904 12.4423C8.81934 12.4446 8.87019 12.4423 8.95033 12.4423C8.95033 12.3569 8.94978 12.2835 8.95033 12.21C8.95586 11.5256 8.91938 10.8389 9.05867 10.1618C9.51855 7.93082 10.771 6.36832 12.7996 5.46636C13.3606 5.21695 13.9531 5.07915 14.5639 5.02847C14.5965 5.02562 14.628 5.01025 14.6601 5.00057C14.9552 5 15.251 5 15.5467 5ZM9.80818 13.3289C9.46659 13.3289 9.14379 13.3289 8.82044 13.3289C8.24394 13.3289 7.87416 13.7008 7.87084 14.2998C7.86587 15.2479 7.86753 16.1954 7.87029 17.1435C7.8714 17.5535 8.12787 17.9242 8.51975 17.9697C8.9426 18.0187 9.37483 17.9805 9.80818 17.9805C9.80818 16.4368 9.80818 14.8943 9.80818 13.3289ZM20.4113 17.9993C20.7639 17.9993 21.0994 18.0164 21.4333 17.9954C21.9147 17.9646 22.133 17.7072 22.133 17.2124C22.1336 16.3287 22.1325 15.4455 22.1336 14.5617C22.1342 14.2355 22.0535 13.928 21.8534 13.6791C21.7401 13.5385 21.5742 13.3796 21.4134 13.3546C21.0884 13.3045 20.7512 13.3398 20.4113 13.3398C20.4113 14.8948 20.4113 16.4374 20.4113 17.9993ZM16.8141 20.8197C16.8086 20.051 16.2553 19.4724 15.5301 19.477C14.8375 19.4815 14.2671 20.0675 14.2676 20.7724C14.2687 21.4876 14.8718 22.1049 15.5677 22.1037C16.2536 22.102 16.8191 21.5189 16.8141 20.8197Z" fill="#EFEFF4" stroke="#EFEFF4" stroke-width="0.3"/>
</svg>
