<svg width="97" height="50" viewBox="0 0 97 50" fill="none" xmlns="http://www.w3.org/2000/svg">
<rect width="97" height="50" rx="6" fill="#6461FC"/>
<path fill-rule="evenodd" clip-rule="evenodd" d="M49.9766 18.4392L46.9532 19.0881V16.6368L49.9766 16V18.4392ZM56.2641 19.797C55.0837 19.797 54.3248 20.3498 53.9032 20.7343L53.7466 19.9893H51.0966V34L54.108 33.3631L54.12 29.9626C54.5536 30.275 55.1921 30.7196 56.2521 30.7196C58.4082 30.7196 60.3716 28.9893 60.3716 25.1802C60.3596 21.6956 58.3721 19.797 56.2641 19.797ZM55.5413 28.076C54.8307 28.076 54.4091 27.8236 54.12 27.5112L54.1079 23.0533C54.4211 22.7048 54.8547 22.4645 55.5413 22.4645C56.6375 22.4645 57.3963 23.6901 57.3963 25.2642C57.3963 26.8744 56.6495 28.076 55.5413 28.076ZM69.8636 25.3004C69.8636 22.2243 68.3699 19.797 65.5151 19.797C62.6483 19.797 60.9138 22.2243 60.9138 25.2763C60.9138 28.8932 62.9615 30.7196 65.9006 30.7196C67.334 30.7196 68.4181 30.3952 69.2372 29.9385V27.5353C68.4181 27.9439 67.4786 28.1962 66.2861 28.1962C65.1176 28.1962 64.0817 27.7877 63.9492 26.3698H69.8395C69.8395 26.3036 69.8438 26.1534 69.8488 25.9803L69.8488 25.9798V25.9796L69.8488 25.9793L69.8488 25.9789L69.8488 25.9786L69.8488 25.9784C69.8556 25.7432 69.8636 25.4662 69.8636 25.3004ZM63.913 24.1588C63.913 22.801 64.7442 22.2362 65.503 22.2362C66.2378 22.2362 67.0208 22.801 67.0208 24.1588H63.913ZM46.9529 20.0014H49.9764V30.5154H46.9529V20.0014ZM43.5203 20.0014L43.713 20.8906C44.4237 19.5929 45.833 19.8572 46.2185 20.0014V22.7651C45.8451 22.6329 44.6405 22.4647 43.9298 23.3899V30.5154H40.9185V20.0014H43.5203ZM37.6901 17.3938L34.751 18.0186L34.739 27.6435C34.739 29.4218 36.076 30.7316 37.8587 30.7316C38.8465 30.7316 39.5692 30.5513 39.9667 30.3351V27.8958C39.5812 28.052 37.6781 28.6048 37.6781 26.8264V22.5607H39.9667V20.0013H37.6781L37.6901 17.3938ZM30.5714 22.4045C29.933 22.4045 29.5475 22.5847 29.5475 23.0534C29.5475 23.565 30.2109 23.7901 31.0339 24.0693C32.3755 24.5246 34.1414 25.1237 34.1489 27.3431C34.1489 29.494 32.4264 30.7316 29.9209 30.7316C28.885 30.7316 27.7527 30.5273 26.6325 30.0467V27.1869C27.6443 27.7396 28.9211 28.1482 29.9209 28.1482C30.5955 28.1482 31.0773 27.9679 31.0773 27.4152C31.0773 26.8484 30.3582 26.5894 29.49 26.2766C28.1679 25.8003 26.5 25.1995 26.5 23.1976C26.5 21.0707 28.1261 19.797 30.5714 19.797C31.5712 19.797 32.5589 19.9532 33.5587 20.3498V23.1735C32.6432 22.6809 31.4868 22.4045 30.5714 22.4045Z" fill="white"/>
</svg>
